<?xml version="1.0" standalone="no"?>
<!DOCTYPE svg PUBLIC "-//W3C//DTD SVG 1.1//EN" "http://www.w3.org/Graphics/SVG/1.1/DTD/svg11.dtd" >
<svg xmlns="http://www.w3.org/2000/svg">
<metadata></metadata>
<defs>
<font id="quatro_slabsemibold" horiz-adv-x="1523" >
<font-face units-per-em="2048" ascent="1536" descent="-512" />
<missing-glyph horiz-adv-x="473" />
<glyph unicode="&#xfb01;" horiz-adv-x="1431" d="M55 920v170l158 26v125q0 175 99 260.5t276 85.5q137 0 278 -31v-239h-116q-12 44 -44 69t-71 25q-50 0 -84.5 -35t-34.5 -112v-148h727v-840q0 -92 70 -92h65v-188q-81 -16 -166 -16q-143 0 -207.5 57t-64.5 186v643q0 31 -12 41.5t-41 10.5h-371v-691q0 -26 12.5 -34.5 t40.5 -8.5h82v-184h-571v184h80q28 0 40.5 8.5t12.5 34.5v639q0 54 -53 54h-105zM934 1317v246h313v-246h-313z" />
<glyph unicode="&#xfb02;" horiz-adv-x="1456" d="M55 920v170l160 26v125q0 174 101 260t278 86q150 0 299 -61v-246h-125q-12 51 -51.5 80t-87.5 29q-46 0 -79.5 -34t-33.5 -91v-148h272v-198h-272v-691q0 -26 13.5 -34.5t41.5 -8.5h80v-184h-571v184h80q28 0 41.5 8.5t13.5 34.5v639q0 54 -55 54h-105zM834 0v184h81 q26 0 39 8.5t13 34.5v1336h303v-1334q0 -27 12 -36t37 -9h86v-184h-571z" />
<glyph unicode="&#xfb03;" horiz-adv-x="2154" d="M55 920v170l158 26v125q0 175 98.5 260.5t272.5 85.5q144 0 295 -59v-248h-125q-13 55 -50.5 86t-80.5 31q-49 0 -78 -37.5t-29 -95.5v-148h432v125q0 181 103.5 263.5t283.5 82.5q111 0 267 -26v-244h-138q-10 34 -40 58t-74 24q-47 0 -73 -36t-26 -106v-141h717v-840 q0 -92 70 -92h65v-188q-85 -14 -166 -14q-149 0 -210.5 59.5t-61.5 200.5v624q0 31 -12.5 41.5t-40.5 10.5h-361v-689q0 -27 13 -35t41 -8h81v-186h-571v186h80q28 0 40.5 8t12.5 35v635q0 56 -55 56h-377v-691q0 -27 13 -35t40 -8h82v-186h-571v186h80q28 0 40.5 8t12.5 35 v635q0 56 -53 56h-105zM1657 1317v246h315v-246h-315z" />
<glyph unicode="&#xfb04;" horiz-adv-x="2189" d="M55 920v170l158 26v125q0 175 98.5 260.5t272.5 85.5q147 0 295 -59v-248h-123q-14 55 -52 86t-81 31q-50 0 -78.5 -37t-28.5 -96v-148h432v125q0 175 101 260.5t280 85.5q175 0 326 -59v-248h-119q-23 56 -66 87.5t-92 31.5q-59 0 -93 -38t-34 -97v-148h271v-198h-271 v-689q0 -27 13 -35t41 -8h81v-186h-571v186h80q28 0 40.5 8t12.5 35v635q0 53 -53 56h-379v-691q0 -27 12.5 -35t40.5 -8h82v-186h-571v186h80q28 0 40.5 8t12.5 35v635q0 56 -53 56h-105zM1567 0v186h82q27 0 40 8t13 35v1334h301v-1332q0 -27 12 -36t37 -9h88v-186h-573z " />
<glyph horiz-adv-x="0" />
<glyph horiz-adv-x="0" />
<glyph horiz-adv-x="682" />
<glyph unicode="&#xd;" horiz-adv-x="471" />
<glyph unicode=" "  horiz-adv-x="473" />
<glyph unicode="&#x09;" horiz-adv-x="473" />
<glyph unicode="&#xa0;" horiz-adv-x="473" />
<glyph unicode="!" horiz-adv-x="677" d="M160 0v274h358v-274h-358zM184 801v674h310v-674l-60 -344h-194z" />
<glyph unicode="&#x22;" horiz-adv-x="841" d="M131 834v538h211v-538h-211zM502 834v538h209v-538h-209z" />
<glyph unicode="#" horiz-adv-x="1593" d="M61 352l54 226h254l63 301h-254l49 227h246l76 369h276l-75 -369h254l77 369h279l-76 -369h246l-47 -227h-242l-61 -301h241l-47 -226h-239l-72 -352h-281l74 352h-256l-74 -352h-276l76 352h-265zM643 578h256l64 301h-258z" />
<glyph unicode="$" horiz-adv-x="1081" d="M94 993q0 275 307 340v158h269v-141q140 -9 286 -47v-302h-153q-27 71 -86 112.5t-144 41.5q-184 0 -184 -135q0 -38 21 -65t56.5 -42.5t81.5 -27.5t96.5 -23.5t101 -26t96.5 -39.5t81.5 -59t56.5 -89.5t21 -127.5q0 -168 -90.5 -263.5t-240.5 -123.5v-139h-269v127 q-159 12 -301 61v301h160q15 -71 82 -120.5t158 -49.5q200 0 200 164q0 42 -20.5 72.5t-56 48.5t-81 31t-95.5 25t-100 26.5t-95.5 38.5t-81 58t-56 89t-20.5 127z" />
<glyph unicode="%" horiz-adv-x="1556" d="M59 94l1323 1383l105 -117l-1319 -1374zM145 1176q0 138 89.5 230.5t236.5 92.5t238.5 -92.5t91.5 -230.5q0 -142 -91 -232t-239 -90q-147 0 -236.5 90t-89.5 232zM336 1176q0 -92 34 -142.5t101 -50.5t102 50.5t35 142.5t-35 142t-102 50t-101 -50t-34 -142zM782 297 q0 139 89.5 231.5t236.5 92.5q146 0 237 -93t91 -231q0 -142 -90 -232t-238 -90t-237 89.5t-89 232.5zM971 297q0 -92 35 -142.5t102 -50.5t101 50.5t34 142.5q0 93 -34 142.5t-101 49.5t-102 -49.5t-35 -142.5z" />
<glyph unicode="&#x26;" horiz-adv-x="1529" d="M98 393q0 127 69 229.5t218 159.5q-199 114 -199 328q0 118 69 208t182.5 135.5t250.5 45.5q123 0 221.5 -15t225.5 -50v-320h-168q-28 78 -97 115t-161 37q-32 0 -62.5 -8t-61.5 -27t-50 -58t-19 -94q0 -93 75.5 -146.5t188.5 -53.5h615v-226h-240l217 -456h139v-197 h-346l-86 172q-97 -92 -235 -143.5t-279 -51.5q-125 0 -229.5 47t-171 143.5t-66.5 225.5zM416 426q0 -107 64.5 -161t166.5 -54q91 0 181.5 42.5t158.5 119.5l-133 280h-170q-74 0 -128.5 -21.5t-83.5 -56.5t-42.5 -72.5t-13.5 -76.5z" />
<glyph unicode="'" horiz-adv-x="471" d="M131 834v538h209v-538h-209z" />
<glyph unicode="(" horiz-adv-x="677" d="M76 571q0 304 82 545.5t223 446.5h289q-322 -504 -322 -992q0 -487 322 -991h-289q-91 133 -154.5 267t-107 324t-43.5 400z" />
<glyph unicode=")" horiz-adv-x="677" d="M8 -420q322 504 322 991q0 488 -322 992h289q67 -98 118.5 -197t95.5 -221.5t67.5 -268t23.5 -305.5q0 -304 -82 -545t-223 -446h-289z" />
<glyph unicode="*" horiz-adv-x="933" d="M68 1149l55 168l256 -88q-2 46 -4 137t-4 137h188q-2 -41 -3 -87t-1.5 -102t-1.5 -87l260 90q23 -68 51 -164q-220 -68 -264 -82q6 -8 170 -221q-23 -16 -73 -51.5t-76 -53.5q-17 24 -49 66t-57.5 77.5t-47.5 67.5q-87 -129 -148 -215q-125 90 -153 113q116 151 166 215 q-25 7 -119 36t-145 44z" />
<glyph unicode="+" horiz-adv-x="1099" d="M68 463v223h368v369h238v-369h358v-223h-358v-369h-238v369h-368z" />
<glyph unicode="," horiz-adv-x="569" d="M123 0v295h323v-340q0 -24 -4 -47.5t-17.5 -53.5t-36.5 -52.5t-65.5 -38t-99.5 -15.5h-100v164h57q38 0 57 12t19 43v33h-133z" />
<glyph unicode="-" horiz-adv-x="946" d="M123 449v233h700v-233h-700z" />
<glyph unicode="." horiz-adv-x="567" d="M123 0v295h321v-295h-321z" />
<glyph unicode="/" horiz-adv-x="905" d="M49 -512l545 2048h264l-547 -2048h-262z" />
<glyph unicode="0" horiz-adv-x="1423" d="M92 737q0 137 20.5 250.5t67 210t118 162t176.5 102.5t239 37q618 0 618 -764q0 -137 -20.5 -250.5t-66.5 -209.5t-116.5 -161.5t-175.5 -102t-239 -36.5t-239 37t-176.5 102.5t-118 162t-67 210t-20.5 250.5zM412 737q0 -542 301 -542t301 540q0 543 -301 543t-301 -541 z" />
<glyph unicode="1" horiz-adv-x="968" d="M84 0v195h233q50 0 50 34v871h-254v196h98q112 0 172.5 44.5t81.5 134.5h207v-1252q3 -25 37 -28h237v-195h-862z" />
<glyph unicode="2" horiz-adv-x="1212" d="M86 0v127q0 98 24.5 181t65.5 142.5t94 110t111.5 89.5t117.5 74.5t112 70.5t94 72.5t65.5 85.5t24.5 104q0 97 -63 161t-173 64q-224 0 -264 -188h-176v336q223 69 436 69q95 0 175 -13.5t151 -45.5t120.5 -82t78 -126.5t28.5 -174.5q0 -75 -24.5 -141t-65.5 -116 t-94.5 -95t-112.5 -82.5t-117.5 -73t-112 -72t-94.5 -74.5t-65.5 -85.5t-24.5 -100.5h471l82 178h154v-395h-1018z" />
<glyph unicode="3" horiz-adv-x="1210" d="M94 55v307h172q60 -169 281 -169q119 0 188.5 69t69.5 172q0 89 -60.5 150t-177.5 61h-174v195h170q99 0 164.5 67.5t65.5 165.5q0 30 -10.5 62t-35 67t-76.5 57.5t-124 22.5q-214 0 -256 -174h-172v313q105 36 238.5 57t220.5 21q232 0 376 -108.5t144 -290.5 q0 -102 -60 -191.5t-159 -150.5q110 -40 173.5 -126.5t63.5 -199.5q0 -112 -43.5 -199.5t-120.5 -143t-179.5 -84t-223.5 -28.5q-105 0 -231.5 20.5t-223.5 57.5z" />
<glyph unicode="4" horiz-adv-x="1294" d="M43 422v221l475 832h326l-479 -842h315v84l147 299h158v-383h260v-211h-260v-199q0 -25 37 -28h164v-195h-709v195h154q49 0 49 34v193h-637z" />
<glyph unicode="5" horiz-adv-x="1210" d="M123 57v312h174q26 -86 96 -131t174 -45q50 0 92.5 14.5t79.5 46t58.5 89t21.5 134.5q0 134 -66 198t-167 64q-64 0 -127.5 -27t-112.5 -77h-215v840h940v-240h-686v-365q127 82 287 82q70 0 135.5 -16.5t125 -52.5t103.5 -88.5t70.5 -130.5t26.5 -172q0 -132 -42.5 -232 t-120 -162t-180.5 -92.5t-229 -30.5q-99 0 -217.5 22t-220.5 60z" />
<glyph unicode="6" horiz-adv-x="1300" d="M90 729q0 230 86.5 406t238 270t345.5 94q212 0 381 -69v-287h-172q-48 135 -232 135q-73 0 -131 -31.5t-94.5 -82t-61 -117.5t-34.5 -133t-10 -134q159 94 364 94q73 0 139 -14.5t125.5 -47t103.5 -80t69.5 -117.5t25.5 -156q0 -102 -35.5 -189t-104 -153.5t-175.5 -104 t-242 -37.5q-95 0 -176.5 21t-158.5 74.5t-131.5 137t-87 216.5t-32.5 305zM424 586q3 -106 31.5 -192t90 -143.5t148.5 -57.5q98 0 163 65.5t65 179.5q0 102 -69 159.5t-179 57.5q-59 0 -129 -19t-121 -50z" />
<glyph unicode="7" horiz-adv-x="1079" d="M59 1087v388h996v-261q-223 -286 -351 -577t-184 -637h-280l-35 129q68 261 212.5 563.5t350.5 558.5h-446l-111 -164h-152z" />
<glyph unicode="8" horiz-adv-x="1275" d="M90 365q0 117 76.5 216t206.5 150q-128 70 -191 159.5t-63 209.5q0 73 31.5 142t91.5 127.5t161 94t228 35.5q112 0 202 -24t146 -62t94 -88.5t53 -100.5t15 -102q0 -109 -68.5 -198.5t-177.5 -145.5q160 -72 228.5 -161.5t68.5 -204.5q0 -65 -19.5 -126.5t-62 -118.5 t-105 -99t-154.5 -67.5t-204 -25.5q-134 0 -242 32t-175.5 87t-103.5 124.5t-36 146.5zM381 395q0 -91 69 -150t187 -59q109 0 175.5 53.5t66.5 139.5q0 23 -7.5 45t-16.5 39t-29.5 35t-35 30t-45.5 28t-47 24t-54.5 22.5t-53 20t-55.5 20.5q-70 -46 -112 -113t-42 -135z M428 1100q0 -29 10 -55.5t23 -46.5t40 -40t45.5 -32t56 -29t55.5 -24t59 -23q62 42 97.5 107t35.5 133q0 85 -54.5 141t-158.5 57q-98 0 -153.5 -46.5t-55.5 -141.5z" />
<glyph unicode="9" horiz-adv-x="1300" d="M68 1014q0 102 35.5 189t104 153.5t175.5 104.5t242 38q95 0 176.5 -21t158.5 -75t131 -137.5t86.5 -217t32.5 -305.5t-50 -316.5t-138.5 -243t-212.5 -153.5t-270 -55q-208 0 -379 70v285h172q48 -135 231 -135q72 0 130 31t95 81t62 116.5t35 133t10 135.5 q-159 -94 -360 -94q-93 0 -174 24t-148 72t-106 130.5t-39 189.5zM379 1034q0 -102 68.5 -159.5t177.5 -57.5q60 0 131.5 19t122.5 51q-6 79 -23 145t-47.5 124t-82.5 91t-120 33q-99 0 -163 -65.5t-64 -180.5z" />
<glyph unicode=":" horiz-adv-x="565" d="M123 0v295h319v-295h-319zM123 657v295h319v-295h-319z" />
<glyph unicode=";" horiz-adv-x="567" d="M123 0v295h321v-340q0 -24 -4 -47.5t-17.5 -53.5t-36.5 -52.5t-65.5 -38t-99.5 -15.5h-98v164h55q39 0 57.5 12t18.5 43v33h-131zM123 657v295h319v-295h-319z" />
<glyph unicode="&#x3c;" horiz-adv-x="1093" d="M74 401v316l901 338v-264l-651 -216v-32q109 -37 651 -217v-265z" />
<glyph unicode="=" horiz-adv-x="1218" d="M127 223v228h965v-228h-965zM127 690v225h965v-225h-965z" />
<glyph unicode="&#x3e;" horiz-adv-x="1093" d="M119 61v265l651 217v32l-651 216v264l901 -338v-316z" />
<glyph unicode="?" horiz-adv-x="1054" d="M70 1184v309q214 92 438 92q80 0 151 -14t132 -44t105.5 -74t69.5 -107.5t25 -141.5q0 -68 -20 -128.5t-52.5 -106t-71.5 -87.5t-78 -80.5t-71.5 -76.5t-52.5 -83.5t-20 -94.5q0 -48 8 -92h-301q-6 43 -6 82q0 65 19.5 124.5t50 105t68 87.5t75 79.5t68 73.5t50 77.5 t19.5 84.5q0 89 -50 136t-139 47q-82 0 -146 -40.5t-87 -127.5h-184zM322 0v270h344v-270h-344z" />
<glyph unicode="@" horiz-adv-x="1918" d="M86 526q0 169 50 313t137 247.5t203.5 176.5t251.5 108.5t280 35.5q171 0 324 -48.5t269 -138t184 -225.5t68 -301q0 -149 -41.5 -264.5t-110.5 -181.5t-149 -98.5t-168 -32.5q-174 0 -266 123q-46 -36 -114 -59t-125 -23q-99 0 -168.5 61t-69.5 162q0 105 73.5 167 t215.5 62h160v78q0 50 -32.5 77.5t-92.5 27.5q-130 0 -152 -103h-121v199q150 53 291 53q150 0 237 -73t87 -203v-271q0 -104 123 -104q81 0 140.5 98t59.5 281q0 125 -50 228t-136 170t-200.5 103.5t-244.5 36.5q-103 0 -200.5 -25t-186.5 -79t-156 -132t-107 -193 t-40 -253q0 -134 37.5 -241.5t101 -178t152 -117.5t185.5 -67t206 -20q168 0 324 43l31 -176q-192 -66 -388 -66q-137 0 -263 31t-237.5 97.5t-194 162t-130 232t-47.5 300.5zM864 397q0 -39 25.5 -59.5t66.5 -20.5q73 0 134 48v114h-101q-61 0 -93 -16t-32 -66z" />
<glyph unicode="A" d="M12 0v199h82q58 0 88 88l320 987h-213l51 201h651l400 -1217q9 -30 22.5 -44.5t44.5 -14.5h78v-199h-608v199h131l-92 325h-441l-100 -325h135v-199h-549zM575 709h340l-157 532h-21z" />
<glyph unicode="B" horiz-adv-x="1394" d="M92 0v199h72q61 0 61 55v967q0 53 -55 53h-78v201h692q115 0 207 -32t150.5 -86.5t89.5 -124.5t31 -149q0 -199 -166 -307v-10q112 -50 163.5 -131t51.5 -199q0 -204 -151 -320t-400 -116h-668zM543 223h182q72 0 124 18.5t80 51t40 70.5t12 83q0 91 -50 149t-159 58 h-229v-430zM543 860h219q48 0 84 18t56 48t29 63.5t9 71.5q0 82 -54.5 136t-164.5 54h-178v-391z" />
<glyph unicode="C" horiz-adv-x="1351" d="M84 735q0 385 186 574.5t527 189.5q103 0 230 -17.5t237 -49.5v-345h-183q-21 57 -52.5 94.5t-93.5 63t-151 25.5q-81 0 -148 -32t-118 -96t-79.5 -168.5t-28.5 -240.5q0 -266 106.5 -397t284.5 -131q69 0 118 12.5t79.5 39t48 55.5t34.5 73h183v-342q-216 -68 -467 -68 q-341 0 -527 188.5t-186 571.5z" />
<glyph unicode="D" horiz-adv-x="1554" d="M92 0v199h72q61 0 61 55v967q0 53 -55 53h-78v201h690q155 0 280 -44.5t216.5 -132.5t141.5 -228t50 -322q0 -183 -50 -325.5t-141 -235t-217 -140t-280 -47.5h-690zM543 229h194q406 0 406 519q0 64 -6.5 119.5t-22.5 114.5t-46 104.5t-73.5 82t-109 56.5t-148.5 20 h-194v-1016z" />
<glyph unicode="E" horiz-adv-x="1314" d="M92 0v199h72q61 0 61 55v967q0 53 -55 53h-78v201h1120v-408h-172l-73 176h-424v-379h458v-202h-458v-433h438l63 181h173v-410h-1125z" />
<glyph unicode="F" horiz-adv-x="1267" d="M92 0v199h72q61 0 61 55v967q0 53 -55 53h-78v201h1127v-408h-170l-72 176h-434v-420h479v-225h-479v-399h133v-199h-584z" />
<glyph unicode="G" horiz-adv-x="1484" d="M82 743q0 243 97 415t268.5 256.5t404.5 84.5q105 0 239.5 -17.5t243.5 -49.5v-345h-188q-32 86 -107.5 133.5t-216.5 47.5q-88 0 -159.5 -28t-130 -88.5t-91 -167.5t-32.5 -253q0 -137 32 -240t89.5 -164.5t132 -91.5t165.5 -30q132 0 244 41v309h-285v217h590v-688 q-120 -50 -282 -79.5t-301 -29.5q-344 0 -528.5 194t-184.5 574z" />
<glyph unicode="H" horiz-adv-x="1693" d="M92 0v199h72q59 0 59 53v967q0 55 -55 55h-76v201h582v-201h-131v-404h608v404h-133v201h584v-201h-76q-56 0 -56 -55v-967q0 -53 60 -53h72v-199h-584v199h133v440h-608v-440h131v-199h-582z" />
<glyph unicode="I" horiz-adv-x="765" d="M92 0v199h74q57 0 57 55v967q0 53 -53 53h-78v201h582v-201h-76q-52 0 -55 -47v-979q2 -25 14.5 -37t44.5 -12h72v-199h-582z" />
<glyph unicode="J" horiz-adv-x="1026" d="M35 35v289h172q32 -73 77.5 -107.5t94.5 -34.5q61 0 100 40.5t39 119.5v879q0 53 -55 53h-84v201h588v-201h-76q-52 0 -55 -47v-883q0 -186 -120 -278.5t-333 -92.5q-181 0 -348 62z" />
<glyph unicode="K" horiz-adv-x="1484" d="M92 0v199h72q59 0 59 53v967q0 55 -53 55h-78v201h582v-201h-131v-443h127l311 443h-119v201h547v-201h-133l-344 -477l176 -285q43 -71 74 -112t71.5 -75t88 -49t112.5 -16v-262q-70 -8 -106 -8q-92 0 -168 25.5t-138.5 79t-112 116.5t-104.5 156l-166 278h-116v-446 h121v-199h-572z" />
<glyph unicode="L" horiz-adv-x="1222" d="M92 0v199h72q59 0 59 55v967q0 53 -55 53h-76v201h582v-201h-133v-1045h411l66 201h176v-430h-1102z" />
<glyph unicode="M" horiz-adv-x="2142" d="M92 0v199h72q59 0 59 53v967q0 55 -55 55h-76v201h604l396 -1069l385 1069h571v-201h-76q-53 0 -53 -55v-967q0 -53 57 -53h72v-199h-567v199h118v925l-417 -1124h-269q-60 162 -201.5 540.5t-217.5 583.5v-925h118v-199h-520z" />
<glyph unicode="N" horiz-adv-x="1660" d="M92 0v199h74q59 0 59 53v967q0 55 -55 55h-78v201h477l631 -1022v821h-133v201h524v-201h-78q-55 0 -55 -55v-1219h-342l-629 1010v-811h131v-199h-526z" />
<glyph unicode="O" horiz-adv-x="1554" d="M82 737q0 369 186 565.5t510 196.5t509.5 -196.5t185.5 -565.5q0 -370 -185.5 -566t-509.5 -196t-510 196t-186 566zM410 737q0 -532 368 -532q81 0 145.5 27.5t116 87.5t79.5 165.5t28 251.5q0 145 -28 251t-79.5 166t-116 88t-145.5 28q-82 0 -146.5 -28t-115.5 -88.5 t-78.5 -166t-27.5 -250.5z" />
<glyph unicode="P" horiz-adv-x="1359" d="M92 0v199h72q59 0 59 53v967q0 55 -55 55h-76v201h735q118 0 211.5 -38.5t151.5 -104t88.5 -149t30.5 -177.5q0 -212 -133 -347t-361 -135h-274v-325h143v-199h-592zM541 754h196q70 0 120 20.5t76.5 57t38 78t11.5 91.5q0 105 -60 172.5t-188 67.5h-194v-487z" />
<glyph unicode="Q" horiz-adv-x="1558" d="M82 737q0 369 186 565.5t510 196.5t511.5 -197t187.5 -565q0 -271 -104.5 -449.5t-291.5 -250.5q75 -89 133 -130.5t138 -51.5v-127h-377q-93 101 -182 249q-161 0 -291 47t-224 139.5t-145 238.5t-51 335zM408 737q0 -146 28 -251.5t80 -165.5t116.5 -87.5t145.5 -27.5 t146 27.5t116.5 87.5t80 165.5t28.5 251.5q0 145 -28.5 251t-80 166t-116.5 88t-146 28t-145.5 -28t-116.5 -88t-80 -166t-28 -251z" />
<glyph unicode="R" horiz-adv-x="1462" d="M92 0v199h72q59 0 59 53v967q0 55 -53 55h-78v201h703q138 0 241.5 -32t165.5 -90t92.5 -134.5t30.5 -171.5q0 -143 -77.5 -237t-211.5 -126q238 -65 238 -289v-73q0 -33 4 -52.5t18.5 -36t42 -24.5t74.5 -12v-197q-66 -8 -153 -8q-74 0 -127.5 14.5t-95.5 49t-62.5 96.5 t-20.5 153v105q0 73 -51 123.5t-153 50.5h-207v-385h116v-199h-567zM543 788h229q68 0 115.5 22.5t70 61t31 75t8.5 79.5q0 29 -5 55.5t-20 57t-38.5 52t-65.5 36t-96 14.5h-229v-453z" />
<glyph unicode="S" horiz-adv-x="1269" d="M94 1069q0 91 31.5 164.5t85 122.5t128 81.5t157 47t174.5 14.5q103 0 231.5 -21t233.5 -57v-346h-193q-6 95 -93.5 153t-197.5 58q-111 0 -172 -47.5t-61 -130.5q0 -46 26.5 -80.5t71.5 -56t103.5 -39.5t123 -35.5t129 -38.5t123 -54t103.5 -77t71.5 -112t26.5 -154 q0 -124 -47 -219.5t-129 -152.5t-184.5 -85.5t-221.5 -28.5q-105 0 -248 23.5t-260 64.5v361h197q10 -109 92 -168t219 -59q108 0 183 61.5t75 149.5q0 51 -26.5 89.5t-71.5 62.5t-103.5 43t-123 37t-129 39t-123 53t-103.5 74.5t-71.5 109.5t-26.5 153z" />
<glyph unicode="T" horiz-adv-x="1411" d="M41 997v478h1329v-478h-182l-45 246h-277v-995q2 -25 14.5 -37t43.5 -12h73v-199h-581v199h71q60 0 60 55v989h-279l-45 -246h-182z" />
<glyph unicode="U" d="M59 1274v201h564v-201h-127v-782q0 -287 290 -287q43 0 81 7t77.5 26.5t68 50t46.5 82t18 118.5v785h-119v201h506v-201h-67q-51 0 -51 -49v-707q0 -279 -146 -411t-434 -132q-298 0 -443 132t-145 411v707q0 49 -51 49h-68z" />
<glyph unicode="V" d="M0 1274v201h618v-201h-139l305 -1043h23l307 1043h-141v201h561v-201h-94q-58 0 -76 -64l-391 -1210h-422l-397 1210q-22 64 -74 64h-80z" />
<glyph unicode="W" horiz-adv-x="2191" d="M10 1274v201h592v-201h-133l219 -952h8l240 1153h369l233 -1153l236 952h-162v201h575v-201h-86q-58 0 -76 -64l-299 -1214h-423l-213 1081l-228 -1081h-397l-303 1214q-15 64 -74 64h-78z" />
<glyph unicode="X" horiz-adv-x="1589" d="M25 0v199h141l418 557l-416 518h-113v201h633v-201h-123l289 -375l244 334q6 9 6 16q0 11 -8 18t-21 7h-106v201h567v-201h-131l-399 -529l424 -546h137v-199h-654v199h121l-303 393l-258 -346q-8 -11 -8 -23q0 -24 35 -24h108v-199h-583z" />
<glyph unicode="Y" horiz-adv-x="1445" d="M-14 1274v201h606v-201h-127l297 -488l282 488h-137v201h551v-201h-78q-42 0 -65 -16t-43 -48l-385 -649v-313q0 -25 13.5 -37t45.5 -12h72v-199h-584v199h74q59 0 59 55v309l-413 651q-40 60 -97 60h-71z" />
<glyph unicode="Z" horiz-adv-x="1337" d="M84 0v246l766 999h-408q-147 0 -163 -207h-183v437h1131v-246l-758 -1000h461q40 0 70 19t47 51t25 64.5t11 68.5h179v-432h-1178z" />
<glyph unicode="[" horiz-adv-x="718" d="M168 -420v1983h491v-228h-223v-1528h223v-227h-491z" />
<glyph unicode="\" horiz-adv-x="903" d="M49 1536h262l541 -2048h-258z" />
<glyph unicode="]" horiz-adv-x="718" d="M59 -195h222v1528h-222v230h492v-1983h-492v225z" />
<glyph unicode="^" horiz-adv-x="1286" d="M186 723l308 649h294l326 -649h-272l-195 442l-184 -442h-277z" />
<glyph unicode="_" horiz-adv-x="1220" d="M123 -14v192h975v-192h-975z" />
<glyph unicode="`" horiz-adv-x="1024" d="M225 1616h295l201 -318v-38h-250z" />
<glyph unicode="a" horiz-adv-x="1185" d="M57 317q0 148 110 240t322 92h236v135q0 73 -49.5 117.5t-136.5 44.5q-195 0 -234 -153h-170v292q237 60 432 60q224 0 341.5 -106.5t117.5 -305.5v-471q0 -76 82 -76h53v-182q-143 -20 -182 -20q-180 0 -231 125q-72 -56 -169 -90.5t-178 -34.5q-148 0 -246 86.5 t-98 246.5zM362 336q0 -65 41 -100t99 -35q136 0 223 69v217h-170q-86 0 -139.5 -36t-53.5 -115z" />
<glyph unicode="b" horiz-adv-x="1286" d="M2 1376v187h438v-527q191 109 346 109q88 0 162 -31t134.5 -95.5t95 -174.5t34.5 -256q0 -163 -45.5 -284t-128.5 -191.5t-187.5 -104t-232.5 -33.5q-232 0 -481 64v1286q0 51 -57 51h-78zM440 229q89 -26 168 -26q153 0 224 87.5t71 274.5q0 182 -53 264t-156 82 q-56 0 -124 -26t-130 -72v-584z" />
<glyph unicode="c" horiz-adv-x="1118" d="M72 559q0 111 23.5 202.5t66.5 154t97.5 108.5t122 71.5t134 37.5t139.5 12q203 0 377 -68v-295h-178q-61 133 -195 133q-137 0 -206.5 -92t-69.5 -264q0 -165 70 -259.5t211 -94.5q74 0 118.5 37.5t75.5 107.5h174v-309q-167 -66 -377 -66q-88 0 -167 16t-157 57.5 t-134 106t-90.5 168t-34.5 236.5z" />
<glyph unicode="d" horiz-adv-x="1333" d="M76 539q0 132 27.5 235.5t75.5 172t117 113.5t148 64t174 19q69 0 228 -31v211q0 31 -12 41t-41 10h-86v189h442v-1301q0 -78 78 -78h57v-184q-141 -16 -184 -16q-82 0 -138.5 22.5t-84.5 85.5q-186 -117 -377 -117q-66 0 -124 16t-114 56.5t-96.5 103t-65 162 t-24.5 226.5zM387 545q0 -348 209 -348q116 0 250 96v600q-92 29 -174 29q-162 0 -223.5 -90t-61.5 -287z" />
<glyph unicode="e" horiz-adv-x="1191" d="M74 561q0 284 148 434t403 150q489 0 489 -537v-112h-719q1 -156 70.5 -227.5t210.5 -71.5q211 0 278 159h138v-280q-93 -45 -222 -73t-225 -28q-571 0 -571 586zM391 674h440q0 264 -215 264q-113 0 -169 -73t-56 -191z" />
<glyph unicode="f" horiz-adv-x="823" d="M55 920v170l158 26v125q0 175 99 260.5t276 85.5q183 0 332 -61v-246h-117q-29 59 -73 88t-93 29q-57 0 -89 -37.5t-32 -95.5v-148h279v-198h-279v-691q0 -26 12.5 -34.5t40.5 -8.5h82v-184h-571v184h80q28 0 40.5 8.5t12.5 34.5v639q0 54 -53 54h-105z" />
<glyph unicode="g" horiz-adv-x="1208" d="M57 -188q0 192 217 231q-106 49 -106 168q0 52 27 104.5t77 92.5q-91 41 -143.5 128t-52.5 195q0 194 130.5 303t364.5 109q55 0 146 -13.5t121 -13.5q26 0 41.5 2t33 10.5t25.5 28t8 51.5h234q0 -69 -14 -116t-44 -75.5t-61 -43.5t-82 -29q88 -73 88 -215 q0 -178 -126 -278.5t-327 -100.5q-48 0 -145 15q-33 -39 -33 -84q0 -68 94 -68h293q70 0 129 -14.5t107.5 -45t76 -84t27.5 -126.5q0 -387 -618 -387q-253 0 -370.5 65t-117.5 191zM360 -123q0 -69 53 -104t179 -35q135 0 202.5 36t67.5 117q0 42 -32.5 72.5t-114.5 30.5 h-221q-62 0 -98 -32.5t-36 -84.5zM381 737q0 -99 44 -150.5t148 -51.5q103 0 146 51t43 151q0 99 -43.5 152t-145.5 53q-103 0 -147.5 -53t-44.5 -152z" />
<glyph unicode="h" horiz-adv-x="1366" d="M45 1376v187h438v-547q86 57 189 92t194 35q68 0 125 -18t103.5 -56t73 -104.5t26.5 -155.5v-573q0 -30 12 -40t39 -10h84v-186h-561v186h123v559q0 85 -38 120.5t-122 35.5q-55 0 -125 -24t-123 -60v-631h123v-186h-559v186h80q29 0 42 8.5t13 36.5v1094q0 31 -12.5 41 t-42.5 10h-82z" />
<glyph unicode="i" horiz-adv-x="663" d="M43 930v186h436v-840q0 -92 70 -92h65v-188q-81 -16 -165 -16q-143 0 -208 57.5t-65 185.5v656q0 31 -12 41t-41 10h-80zM170 1317v246h313v-246h-313z" />
<glyph unicode="j" horiz-adv-x="630" d="M23 -326q99 73 129 156t30 215v840q0 26 -11.5 35.5t-35.5 9.5h-86v186h436v-995q0 -239 -79.5 -377.5t-262.5 -208.5l-120 129v10zM178 1315v248h314v-248h-314z" />
<glyph unicode="k" horiz-adv-x="1271" d="M47 0v186h84q27 0 39 8.5t12 36.5v1094q0 30 -12 40.5t-39 10.5h-84v187h438v-910h103l207 293l-144 33v137h525v-186h-117l-248 -336l111 -168q71 -110 142 -159t173 -50v-219q-55 -14 -117 -14q-257 0 -424 276l-151 252h-60v-326h115v-186h-553z" />
<glyph unicode="l" horiz-adv-x="675" d="M51 0v186h84q27 0 39 8t12 35v1096q0 30 -12 40.5t-39 10.5h-84v187h438v-1332q0 -27 12 -36t38 -9h86v-186h-574z" />
<glyph unicode="m" horiz-adv-x="2043" d="M72 0v184h82q28 0 40.5 9t12.5 36v654q0 27 -13 37t-40 10h-82v186h426v-104q184 129 368 129q94 0 171.5 -35t117.5 -113q203 150 385 150q68 0 126 -18t106 -56.5t75 -105t27 -156.5v-571q0 -31 11.5 -41.5t41.5 -10.5h82v-184h-528v184h90v561q0 83 -35 120.5 t-109 37.5q-102 0 -235 -82v-637h123v-184h-514v184h88v564q0 82 -37 118.5t-115 36.5q-97 0 -227 -86v-633h123v-184h-561z" />
<glyph unicode="n" horiz-adv-x="1390" d="M72 0v184h82q29 0 41 9.5t12 39.5v646q0 31 -12.5 41t-40.5 10h-82v186h426v-106q195 133 397 133q67 0 124 -18.5t103 -56.5t72.5 -104.5t26.5 -154.5v-576q0 -30 12 -39.5t39 -9.5h84v-184h-561v184h123v564q0 159 -160 159q-53 0 -121.5 -26t-126.5 -64v-633h123v-184 h-561z" />
<glyph unicode="o" horiz-adv-x="1286" d="M72 559q0 151 43 265.5t121.5 183.5t180.5 103t226 34q123 0 225.5 -34.5t180.5 -104t121.5 -183.5t43.5 -264q0 -120 -28.5 -217.5t-79.5 -165.5t-123 -113.5t-157 -66.5t-183 -21q-125 0 -226.5 33.5t-180 102.5t-121.5 183t-43 265zM383 559q0 -178 61.5 -272 t198.5 -94q140 0 201 93.5t61 272.5t-61 273t-201 94q-137 0 -198.5 -94.5t-61.5 -272.5z" />
<glyph unicode="p" horiz-adv-x="1331" d="M49 -233h82q27 0 39 8.5t12 36.5v1075q0 26 -12.5 34.5t-38.5 8.5h-82v186h430v-100q192 127 371 127q67 0 124.5 -17t110 -57.5t89.5 -103t59 -159.5t22 -220q0 -609 -505 -609q-134 0 -265 29v-239h136v-187h-572v187zM487 223q89 -28 175 -28q84 0 140 23t87.5 72.5 t44 116.5t12.5 166q0 345 -207 345q-115 0 -252 -95v-600z" />
<glyph unicode="q" horiz-adv-x="1290" d="M74 532q0 165 46.5 286.5t130.5 191.5t190 102.5t237 32.5q233 0 473 -64v-1257q0 -55 63 -55h74v-189h-575v187h137v315q-190 -107 -348 -107q-88 0 -162.5 31t-135.5 94.5t-95.5 174t-34.5 257.5zM383 547q0 -338 215 -338q118 0 252 98v584q-88 27 -166 27 q-301 0 -301 -371z" />
<glyph unicode="r" horiz-adv-x="911" d="M72 930v186h422v-194q120 115 220 164t152 49v-314q-69 -12 -138 -27.5t-136 -32t-82 -20.5v-555h135v-186h-571v186h82q27 0 39 10t12 40v643q0 31 -12.5 41t-40.5 10h-82z" />
<glyph unicode="s" horiz-adv-x="1034" d="M84 803q0 89 36.5 156t102.5 107t151 59.5t189 19.5q160 0 363 -45v-266h-152q-31 61 -90 90.5t-133 29.5q-78 0 -118 -33.5t-40 -84.5q0 -20 6 -36.5t20.5 -29.5t27 -21.5t39 -17t42 -13t50.5 -13.5t51 -13q45 -12 69 -19.5t65 -23t64.5 -31t53 -41.5t45 -55.5t26.5 -72 t11 -93.5q0 -100 -37.5 -174.5t-105 -119t-154 -66t-191.5 -21.5q-197 0 -385 54v276h166q14 -66 76.5 -106.5t136.5 -40.5q180 0 180 149q0 24 -7.5 43t-26 34t-34.5 25.5t-48.5 21t-51 15.5t-57.5 15q-56 14 -97 28t-90 41t-80 61t-52 88.5t-21 123.5z" />
<glyph unicode="t" horiz-adv-x="845" d="M43 918v167q105 20 153 88t66 205h209v-262h338v-198h-338v-558q0 -82 42 -115.5t122 -33.5q61 0 145 25v-224q-138 -37 -280 -37q-47 0 -89 7t-88 27.5t-79 53.5t-54.5 90.5t-21.5 133.5v631h-125z" />
<glyph unicode="u" horiz-adv-x="1361" d="M41 930v186h428v-743q0 -86 34 -123t109 -37q57 0 129.5 24t135.5 62v600q-3 20 -16 25.5t-36 5.5h-90v186h445v-844q0 -86 80 -86h53v-186q-81 -18 -178 -18q-43 0 -75 4.5t-66 17.5t-58.5 40.5t-38.5 68.5q-79 -56 -189.5 -97t-207.5 -41q-70 0 -128 17.5t-105.5 55.5 t-74 105t-26.5 158v574q0 27 -12 36t-37 9h-76z" />
<glyph unicode="v" horiz-adv-x="1265" d="M14 930v186h555v-186h-143l225 -635h19l215 635h-127v186h485v-186h-67q-26 0 -33 -21l-344 -911h-324l-358 909q-10 23 -41 23h-62z" />
<glyph unicode="w" horiz-adv-x="1947" d="M33 930v186h438v-737q0 -90 37.5 -133t103.5 -43q50 0 115.5 24.5t120.5 65.5q-8 56 -8 92v545h-144v186h432v-747q0 -168 183 -168q22 0 49 8.5t56 26t48 52t19 79.5v563h-121v186h557v-186h-88q-22 0 -33.5 -7t-11.5 -30v-512q0 -86 -27.5 -156t-73.5 -115.5 t-110 -76.5t-133.5 -44.5t-147.5 -13.5q-254 0 -387 154q-81 -76 -186 -114t-207 -38q-167 0 -256.5 100t-89.5 322v484q0 27 -11.5 37t-35.5 10h-88z" />
<glyph unicode="x" horiz-adv-x="1320" d="M53 930v186h561v-141h-98l205 -283l172 248q4 8 4 12q0 23 -29 23h-77v141h450v-186h-127l-258 -357l305 -389h125v-184h-565v139h90l-211 283l-182 -246q-6 -6 -6 -14q0 -23 30 -23h76v-139h-463v184h142l276 363l-299 383h-121z" />
<glyph unicode="y" horiz-adv-x="1267" d="M18 930v186h562v-186h-146l223 -664h13l227 664h-135v186h483v-186h-67q-27 0 -37 -31l-326 -901l-125 -418h-354v88l246 320v10h-127l-328 909q-11 23 -41 23h-68z" />
<glyph unicode="z" horiz-adv-x="1118" d="M78 784v332h950v-186l-563 -740h205q99 0 137 34t57 120h176v-344h-954v186l571 740h-231q-85 0 -121.5 -36t-48.5 -106h-178z" />
<glyph unicode="{" horiz-adv-x="784" d="M55 489v177h68q94 0 94 120q0 49 -33.5 199.5t-33.5 239.5q0 171 91 276t267 105h20q67 0 199 -33l-12 -262l-56 -8q-21 53 -54.5 79.5t-69.5 26.5q-115 0 -115 -205q0 -60 29.5 -200t29.5 -207q0 -90 -41.5 -145t-142.5 -66v-15q101 -10 142.5 -64t41.5 -145 q0 -64 -29.5 -203.5t-29.5 -209.5q0 -83 36 -139t81 -56q32 0 64 27t50 78l64 -9l12 -262q-120 -32 -219 -32q-95 0 -165.5 29t-111.5 81.5t-61 120.5t-20 152q0 85 33.5 234.5t33.5 199.5t-23.5 83t-70.5 33h-68z" />
<glyph unicode="|" horiz-adv-x="626" d="M166 -535v2106h295v-2106h-295z" />
<glyph unicode="}" horiz-adv-x="784" d="M57 -412l15 262l53 9q21 -51 55 -78t70 -27q115 0 115 205q0 59 -30 197.5t-30 205.5q0 91 41.5 145t142.5 64v15q-101 11 -142.5 66t-41.5 145q0 63 30 204t30 213q0 81 -37.5 137t-79.5 56q-33 0 -65.5 -26t-49.5 -78l-61 8l-15 262q124 33 219 33q186 0 272.5 -103 t86.5 -278q0 -89 -33 -239.5t-33 -199.5q0 -116 93 -116h67v-178h-67q-93 0 -93 -119q0 -49 33 -198.5t33 -235.5q0 -171 -91.5 -277t-267.5 -106h-20q-71 0 -199 32z" />
<glyph unicode="~" horiz-adv-x="1198" d="M125 686q131 64 268 64q93 0 255 -38t237 -38q92 0 170 37l20 -197q-108 -51 -221 -51q-87 0 -249 39t-243 39q-119 0 -223 -60z" />
<glyph unicode="&#xa1;" horiz-adv-x="632" d="M137 831v275h359v-275h-359zM162 305l59 344h195l55 -344v-674h-309v674z" />
<glyph unicode="&#xa2;" horiz-adv-x="1153" d="M84 739q0 112 24.5 203.5t66 154.5t99.5 108.5t121.5 70.5t136.5 37v162h254v-156q144 -16 256 -62v-296h-178q-60 135 -194 135q-137 0 -206 -92.5t-69 -264.5q0 -165 69.5 -259.5t209.5 -94.5q74 0 118.5 38t75.5 109h174v-311q-110 -45 -256 -61v-160h-254v166 q-73 12 -136 36.5t-122 70t-100 108t-65.5 154t-24.5 204.5z" />
<glyph unicode="&#xa3;" horiz-adv-x="1138" d="M63 0l33 205q117 0 167 58t50 183v238h-200v225h202v135q0 253 167.5 390.5t478.5 156.5l32 -223q-63 -9 -108 -19.5t-97.5 -32.5t-84.5 -51t-54 -78t-22 -112v-166h354v-225h-363v-254q0 -74 -18 -121t-59 -82h510v-227h-988z" />
<glyph unicode="&#xa4;" horiz-adv-x="1103" d="M92 250l162 160q-16 53 -16 106q0 58 18 107l-160 157l187 187l163 -162q50 18 105 18t108 -18l162 160l187 -187l-162 -160q18 -50 18 -102q0 -56 -18 -102l166 -162l-187 -186l-166 161q-49 -18 -108 -18q-62 0 -109 16l-163 -162zM422 516q0 -59 36 -99t95 -40 q55 0 90 40.5t35 98.5t-35 98.5t-90 40.5q-59 0 -95 -40t-36 -99z" />
<glyph unicode="&#xa5;" horiz-adv-x="1591" d="M59 1274v201h607v-201h-127l297 -488l282 488h-137v201h551v-201h-78q-42 0 -65 -16t-43 -48l-250 -422h192v-225h-327v-84h327v-225h-327q0 -29 13 -42t46 -13h72v-199h-584v199h74q59 0 59 55h-330v225h330v84h-330v225h187l-271 426q-40 60 -96 60h-72z" />
<glyph unicode="&#xa6;" horiz-adv-x="641" d="M172 444h297v-979h-297v979zM172 608v955h297v-955h-297z" />
<glyph unicode="&#xa7;" horiz-adv-x="1099" d="M102 694q0 168 160 269q-135 84 -135 254q0 90 36.5 157t102.5 107.5t151 60t189 19.5q161 0 361 -45v-269h-150q-62 121 -225 121q-77 0 -117.5 -36t-40.5 -81q0 -34 19.5 -58.5t53 -39t76.5 -26t90.5 -23t95 -26t90.5 -39.5t76.5 -59t53 -88t19.5 -124q0 -88 -39 -154 t-103 -127q115 -85 115 -245q0 -99 -37.5 -173.5t-104.5 -118.5t-153.5 -65.5t-191.5 -21.5q-200 0 -385 53v274h165q17 -67 78.5 -108t134.5 -41q82 0 132.5 35.5t50.5 116.5q0 45 -31.5 75t-81.5 46.5t-110.5 31.5t-121 38.5t-110.5 57.5t-81.5 98.5t-31.5 153.5zM412 735 q0 -27 9 -48t21 -34t36.5 -24.5t43 -17.5t53.5 -16t56 -17q65 65 65 143q0 27 -12.5 49t-28 35.5t-46.5 26t-52.5 18.5t-60.5 16q-84 -56 -84 -131z" />
<glyph unicode="&#xa8;" horiz-adv-x="1646" d="M381 1298v265h299v-265h-299zM948 1298v265h299v-265h-299z" />
<glyph unicode="&#xa9;" horiz-adv-x="1933" d="M80 748q0 153 45 284.5t126.5 227.5t192 164.5t243.5 102.5t280 34q184 0 344.5 -54.5t281.5 -155.5t190.5 -256.5t69.5 -346.5q0 -163 -45.5 -297.5t-125.5 -229.5t-192 -160t-243 -96t-280 -31t-280.5 30.5t-243 96t-192 160t-126 229.5t-45.5 298zM215 748 q0 -173 58.5 -307t162 -216.5t238 -125t293.5 -42.5q125 0 236 26.5t205.5 81.5t162.5 135.5t106.5 195t38.5 252.5q0 162 -59 293.5t-161 217t-238 131.5t-291 46q-157 0 -293 -46t-238.5 -131.5t-161.5 -217t-59 -293.5zM532 739q0 247 119.5 368.5t337.5 121.5 q156 0 301 -43v-221h-119q-19 55 -62.5 85.5t-127.5 30.5q-107 0 -173.5 -85.5t-66.5 -256.5q0 -170 69 -254t183 -84q83 0 120.5 29.5t57.5 85.5h119v-219q-141 -43 -301 -43q-218 0 -337.5 120.5t-119.5 364.5z" />
<glyph unicode="&#xaa;" horiz-adv-x="890" d="M86 961q0 96 72 155.5t209 59.5h153v88q0 47 -32.5 75.5t-88.5 28.5q-126 0 -151 -98h-111v188q144 39 281 39q147 0 223 -68t76 -198v-307q0 -25 12 -37.5t41 -12.5h35v-118q-5 -1 -50.5 -7t-68.5 -6q-116 0 -151 80q-46 -36 -109.5 -58t-116.5 -22q-96 0 -159.5 57 t-63.5 161zM285 973q0 -43 26 -65.5t64 -22.5q88 0 145 45v141h-110q-56 0 -90.5 -23.5t-34.5 -74.5z" />
<glyph unicode="&#xab;" horiz-adv-x="1251" d="M63 553l388 549l194 -127l-307 -422l307 -420l-194 -125zM582 553l387 549l194 -127l-307 -422l307 -420l-194 -125z" />
<glyph unicode="&#xac;" horiz-adv-x="1255" d="M121 457v219h999v-553l-225 20v314h-774z" />
<glyph unicode="&#xad;" horiz-adv-x="946" d="M123 449v233h700v-233h-700z" />
<glyph unicode="&#xae;" horiz-adv-x="1056" d="M84 1182q0 126 60 219.5t159.5 139.5t224.5 46t224.5 -46t160 -139.5t60.5 -219.5t-60.5 -219.5t-160 -140t-224.5 -46.5t-224.5 46.5t-159.5 140t-60 219.5zM180 1182q0 -152 97.5 -237t250.5 -85t251 85t98 237t-98 236.5t-251 84.5t-250.5 -84.5t-97.5 -236.5z M352 993v56h19q14 0 14 12v242q0 14 -14 14h-19v55h209q69 0 103 -29.5t34 -78.5q0 -38 -19.5 -63t-53.5 -34q61 -16 61 -71v-15q0 -16 5.5 -22.5t27.5 -7.5v-58q-24 -4 -45 -4q-84 0 -84 74v24q0 54 -51 54h-60v-92h27v-56h-154zM479 1198h64q59 0 59 59q0 19 -14 35.5 t-45 16.5h-64v-111z" />
<glyph unicode="&#xaf;" horiz-adv-x="1230" d="M205 1303v198h821v-198h-821z" />
<glyph unicode="&#xb0;" horiz-adv-x="700" d="M80 1229q0 120 76 195t194 75t194.5 -75t76.5 -195t-76.5 -195.5t-194.5 -75.5t-194 75t-76 196zM217 1229q0 -64 37 -104t96 -40q57 0 94 40t37 104q0 63 -37 103t-94 40q-59 0 -96 -40t-37 -103z" />
<glyph unicode="&#xb1;" horiz-adv-x="1191" d="M113 584v223h368v266h238v-266h358v-223h-358v-254h-238v254h-368zM115 23v221h964v-221h-964z" />
<glyph unicode="&#xb2;" horiz-adv-x="874" d="M111 598v74q0 68 22.5 126.5t59 99.5t80 76t87.5 64t80.5 56.5t59 59.5t22.5 67q0 56 -36.5 85t-96.5 29q-58 0 -101 -30t-63 -88h-96v231q140 45 277 45q150 0 242.5 -64.5t92.5 -191.5q0 -53 -21.5 -101t-56.5 -84t-77 -68.5t-84.5 -60t-78 -53t-59.5 -52.5t-26 -54 h270l54 92h100v-258h-651z" />
<glyph unicode="&#xb3;" horiz-adv-x="864" d="M115 623v225h114q14 -48 53.5 -76.5t125.5 -28.5q66 0 104.5 31t38.5 86q0 113 -182 113h-76v125h108q73 0 106.5 36t33.5 91q0 52 -39.5 81t-98.5 29q-73 0 -111 -25.5t-56 -80.5h-107v221q149 49 287 49q98 0 172 -23t122 -81t48 -146q0 -68 -33.5 -115t-97.5 -85 q66 -25 105.5 -78.5t39.5 -116.5q0 -131 -102 -201.5t-258 -70.5q-172 0 -297 41z" />
<glyph unicode="&#xb4;" horiz-adv-x="868" d="M211 1260v38l201 318h295l-246 -356h-250z" />
<glyph unicode="&#xb5;" horiz-adv-x="1419" d="M88 930v186h428v-745q0 -83 33.5 -120.5t107.5 -37.5q59 0 131.5 23.5t133.5 62.5v600q-3 20 -16 25.5t-36 5.5h-88v186h443v-850q0 -82 78 -82h55v-184q-90 -16 -178 -16q-42 0 -74 4.5t-65.5 17t-58.5 39t-40 66.5q-73 -53 -174 -91t-193 -38q-32 0 -59 6v-408h-303 v1303q0 27 -12.5 37t-36.5 10h-76z" />
<glyph unicode="&#xb6;" horiz-adv-x="1292" d="M61 967q0 192 124.5 298.5t328.5 106.5h168v-823h-182q-194 0 -316.5 112t-122.5 306zM348 -41h94q24 -53 70 -79.5t102 -26.5q82 0 131.5 49t49.5 153v1317h317v-1343q0 -212 -123 -315t-371 -103q-123 0 -270 43v305z" />
<glyph unicode="&#xb7;" horiz-adv-x="690" d="M123 348v397h444v-397h-444z" />
<glyph unicode="&#xb8;" horiz-adv-x="956" d="M246 -379q62 -6 114 -6q152 0 152 100q0 43 -38 64.5t-103 21.5q-6 0 -20 -1t-21 -1l-29 78l94 123h197l-94 -115q112 -5 172.5 -53t60.5 -139q0 -228 -373 -228q-33 0 -112 9v147z" />
<glyph unicode="&#xb9;" horiz-adv-x="776" d="M102 598v166h201v475h-166v117q110 0 165.5 31.5t62.5 99.5h149v-723h188v-166h-600z" />
<glyph unicode="&#xba;" horiz-adv-x="903" d="M82 1114q0 193 101.5 287t269.5 94q166 0 268 -95t102 -286q0 -190 -101.5 -284.5t-268.5 -94.5q-168 0 -269.5 93.5t-101.5 285.5zM285 1114q0 -115 39.5 -176t128.5 -61q91 0 130.5 60.5t39.5 176.5q0 118 -39.5 179t-130.5 61q-89 0 -128.5 -61t-39.5 -179z" />
<glyph unicode="&#xbb;" horiz-adv-x="1249" d="M86 133l307 422l-307 420l195 125l387 -545l-387 -549zM604 133l307 422l-307 420l195 125l387 -545l-387 -549z" />
<glyph unicode="&#xbc;" horiz-adv-x="2002" d="M78 598v166h201v473h-166v119q111 0 165.5 31t61.5 100h152v-723h188v-166h-602zM483 -102l783 1689h227l-782 -1689h-228zM1167 270v154l248 471h227l-251 -465h192v53l64 121h145v-174h150v-160h-150v-112h139v-158h-495v158h145v112h-414z" />
<glyph unicode="&#xbd;" horiz-adv-x="1976" d="M70 598v166h200v473h-166v119q110 0 165.5 31.5t62.5 99.5h151v-723h187v-166h-600zM473 -102l784 1689h226l-783 -1689h-227zM1257 0v74q0 68 22.5 126.5t59 99.5t80.5 76t88 64t80.5 56t59 58.5t22.5 66.5q0 58 -36.5 87t-96.5 29q-58 0 -101 -30.5t-63 -88.5h-94v232 q147 45 270 45q153 0 246.5 -64t93.5 -192q0 -53 -21.5 -101t-56.5 -84t-77 -68.5t-84.5 -60t-78 -53t-59.5 -52.5t-26 -54h272l53 92h99v-258h-652z" />
<glyph unicode="&#xbe;" horiz-adv-x="2023" d="M88 623v223h115q9 -31 24.5 -51.5t54.5 -37t99 -16.5q66 0 104.5 31t38.5 86q0 115 -182 115h-76v125h109q74 0 106.5 35t32.5 90q0 52 -39 82t-98 30q-72 0 -110 -26t-56 -82h-109v221q145 51 289 51q72 0 131.5 -13.5t107 -42.5t74.5 -79t27 -117q0 -123 -131 -200 q67 -25 107.5 -78t40.5 -117q0 -88 -50 -150t-130.5 -91t-182.5 -29q-172 0 -297 41zM504 -102l784 1689h225l-782 -1689h-227zM1188 270v154l248 471h227l-252 -465h193v53l63 121h145v-174h150v-160h-150v-112h140v-158h-496v158h146v112h-414z" />
<glyph unicode="&#xbf;" horiz-adv-x="1044" d="M57 -98q0 92 38 171.5t92 136t107.5 108.5t91.5 113.5t38 127.5q0 48 -8 92h301q6 -44 6 -82q0 -65 -19.5 -124.5t-50 -105t-68 -87.5t-75 -79.5t-68 -73.5t-50 -77.5t-19.5 -84.5q0 -89 49.5 -136t138.5 -47q82 0 146.5 40.5t87.5 127.5h184v-309q-214 -92 -438 -92 q-101 0 -186.5 22.5t-153 67.5t-106 119.5t-38.5 171.5zM383 836v270h344v-270h-344z" />
<glyph unicode="&#xc0;" d="M12 0v199h82q58 0 88 88l320 987h-213l51 201h651l400 -1217q9 -30 22.5 -44.5t44.5 -14.5h78v-199h-608v199h131l-92 325h-441l-100 -325h135v-199h-549zM375 1985h295l200 -318v-39h-249zM575 709h340l-157 532h-21z" />
<glyph unicode="&#xc1;" d="M12 0v199h82q58 0 88 88l320 987h-213l51 201h651l400 -1217q9 -30 22.5 -44.5t44.5 -14.5h78v-199h-608v199h131l-92 325h-441l-100 -325h135v-199h-549zM575 709h340l-157 532h-21zM627 1628v39l200 318h295l-245 -357h-250z" />
<glyph unicode="&#xc2;" d="M12 0v199h82q58 0 88 88l320 987h-213l51 201h651l400 -1217q9 -30 22.5 -44.5t44.5 -14.5h78v-199h-608v199h131l-92 325h-441l-100 -325h135v-199h-549zM352 1628l207 357h377l209 -357h-260l-135 248l-136 -248h-262zM575 709h340l-157 532h-21z" />
<glyph unicode="&#xc3;" d="M12 0v199h82q58 0 88 88l320 987h-213l51 201h651l400 -1217q9 -30 22.5 -44.5t44.5 -14.5h78v-199h-608v199h131l-92 325h-441l-100 -325h135v-199h-549zM291 1747q0 73 21 128t50.5 84t69 47t69 23t58.5 5q43 0 79 -13t61 -34.5t47 -47t41.5 -51t39.5 -47t47 -34.5 t58 -13q102 0 102 143q0 41 -2 64h148q14 -61 14 -119q0 -73 -21 -128t-50.5 -84t-68.5 -47t-68.5 -23t-57.5 -5q-62 0 -110.5 24.5t-79 59.5t-56.5 70t-58.5 59.5t-70.5 24.5q-102 0 -102 -141q0 -24 4 -64h-150q-14 61 -14 119zM575 709h340l-157 532h-21z" />
<glyph unicode="&#xc4;" d="M12 0v199h82q58 0 88 88l320 987h-213l51 201h651l400 -1217q9 -30 22.5 -44.5t44.5 -14.5h78v-199h-608v199h131l-92 325h-441l-100 -325h135v-199h-549zM283 1628v264h299v-264h-299zM575 709h340l-157 532h-21zM850 1628v264h299v-264h-299z" />
<glyph unicode="&#xc5;" d="M12 0v199h82q58 0 88 88l320 987h-213l51 201h190q-8 24 -8 63q0 97 61 155t183 58q121 0 182.5 -58t61.5 -155q0 -45 -15 -82l396 -1198q9 -30 22.5 -44.5t44.5 -14.5h78v-199h-608v199h131l-92 325h-441l-100 -325h135v-199h-549zM575 709h340l-157 532h-21zM686 1538 q0 -42 22 -64t58 -22q35 0 56.5 22.5t21.5 63.5t-21.5 63.5t-56.5 22.5q-36 0 -58 -22t-22 -64z" />
<glyph unicode="&#xc6;" horiz-adv-x="2134" d="M-57 0v203h67q45 0 73 18.5t56 61.5l635 989h-209l51 203h1418v-408h-172l-72 174h-426v-379h459v-203h-459v-430h438l64 179h172v-408h-1125v199h74q60 0 60 53v272h-488l-203 -325h136v-199h-549zM676 709h371v532h-35z" />
<glyph unicode="&#xc7;" horiz-adv-x="1353" d="M86 735q0 385 186 574.5t527 189.5q103 0 230 -17.5t237 -49.5v-345h-183q-21 57 -52.5 94.5t-93.5 63t-151 25.5q-81 0 -148 -32t-118 -96t-79.5 -168.5t-28.5 -240.5q0 -266 106.5 -397t284.5 -131q69 0 118 12.5t79.5 39t48 55.5t34.5 73h183v-342q-196 -61 -424 -68 l-74 -90q112 -5 172.5 -53t60.5 -139q0 -228 -372 -228q-34 0 -113 9v147q62 -6 115 -6q151 0 151 100q0 43 -38 64.5t-103 21.5q-6 0 -20 -1t-21 -1l-29 78l82 109q-274 36 -420.5 222t-146.5 527z" />
<glyph unicode="&#xc8;" horiz-adv-x="1314" d="M92 0v199h72q61 0 61 55v967q0 53 -55 53h-78v201h1120v-408h-172l-73 176h-424v-379h458v-202h-458v-433h438l63 181h173v-410h-1125zM365 1985h294l201 -318v-39h-250z" />
<glyph unicode="&#xc9;" horiz-adv-x="1314" d="M92 0v199h72q61 0 61 55v967q0 53 -55 53h-78v201h1120v-408h-172l-73 176h-424v-379h458v-202h-458v-433h438l63 181h173v-410h-1125zM557 1628v39l201 318h295l-246 -357h-250z" />
<glyph unicode="&#xca;" horiz-adv-x="1314" d="M92 0v199h72q61 0 61 55v967q0 53 -55 53h-78v201h1120v-408h-172l-73 176h-424v-379h458v-202h-458v-433h438l63 181h173v-410h-1125zM295 1628l207 357h377l208 -357h-260l-135 248l-135 -248h-262z" />
<glyph unicode="&#xcb;" horiz-adv-x="1314" d="M92 0v199h72q61 0 61 55v967q0 53 -55 53h-78v201h1120v-408h-172l-73 176h-424v-379h458v-202h-458v-433h438l63 181h173v-410h-1125zM248 1628v264h299v-264h-299zM815 1628v264h299v-264h-299z" />
<glyph unicode="&#xcc;" horiz-adv-x="765" d="M4 1985h295l201 -318v-39h-250zM92 0v199h74q57 0 57 55v967q0 53 -53 53h-78v201h582v-201h-76q-52 0 -55 -47v-979q2 -25 14.5 -37t44.5 -12h72v-199h-582z" />
<glyph unicode="&#xcd;" horiz-adv-x="765" d="M92 0v199h74q57 0 57 55v967q0 53 -53 53h-78v201h582v-201h-76q-52 0 -55 -47v-979q2 -25 14.5 -37t44.5 -12h72v-199h-582zM262 1628v39l201 318h295l-246 -357h-250z" />
<glyph unicode="&#xce;" horiz-adv-x="765" d="M-12 1628l207 357h376l209 -357h-260l-135 248l-135 -248h-262zM92 0v199h74q57 0 57 55v967q0 53 -53 53h-78v201h582v-201h-76q-52 0 -55 -47v-979q2 -25 14.5 -37t44.5 -12h72v-199h-582z" />
<glyph unicode="&#xcf;" horiz-adv-x="765" d="M-49 1628v264h299v-264h-299zM92 0v199h74q57 0 57 55v967q0 53 -53 53h-78v201h582v-201h-76q-52 0 -55 -47v-979q2 -25 14.5 -37t44.5 -12h72v-199h-582zM518 1628v264h299v-264h-299z" />
<glyph unicode="&#xd0;" horiz-adv-x="1587" d="M16 610v234h240v373q0 55 -53 55h-78v203h639q133 0 243.5 -25t203.5 -80.5t157 -139.5t99.5 -207t35.5 -278q0 -362 -186.5 -553.5t-501.5 -191.5h-690v199h74q57 0 57 53v358h-240zM575 227h195q408 0 408 518q0 79 -9 144.5t-36 133.5t-70.5 114.5t-118.5 76 t-174 29.5h-195v-399h263v-234h-263v-383z" />
<glyph unicode="&#xd1;" horiz-adv-x="1660" d="M92 0v199h74q59 0 59 53v967q0 55 -55 55h-78v201h477l631 -1022v821h-133v201h524v-201h-78q-55 0 -55 -55v-1219h-342l-629 1010v-811h131v-199h-526zM387 1747q0 73 21 128t50.5 84t69 47t69 23t58.5 5q43 0 79 -13t61 -34.5t47 -47t41.5 -51t39.5 -47t47 -34.5 t58 -13q102 0 102 143q0 41 -2 64h148q14 -61 14 -119q0 -73 -21 -128t-50.5 -84t-68.5 -47t-68.5 -23t-57.5 -5q-62 0 -110.5 24.5t-79 59.5t-56.5 70t-58.5 59.5t-70.5 24.5q-102 0 -102 -141q0 -24 4 -64h-150q-14 61 -14 119z" />
<glyph unicode="&#xd2;" horiz-adv-x="1554" d="M82 737q0 369 186 565.5t510 196.5t509.5 -196.5t185.5 -565.5q0 -370 -185.5 -566t-509.5 -196t-510 196t-186 566zM391 1952h295l201 -318v-39h-250zM410 737q0 -532 368 -532q81 0 145.5 27.5t116 87.5t79.5 165.5t28 251.5q0 145 -28 251t-79.5 166t-116 88 t-145.5 28q-82 0 -146.5 -28t-115.5 -88.5t-78.5 -166t-27.5 -250.5z" />
<glyph unicode="&#xd3;" horiz-adv-x="1554" d="M82 737q0 369 186 565.5t510 196.5t509.5 -196.5t185.5 -565.5q0 -370 -185.5 -566t-509.5 -196t-510 196t-186 566zM410 737q0 -532 368 -532q81 0 145.5 27.5t116 87.5t79.5 165.5t28 251.5q0 145 -28 251t-79.5 166t-116 88t-145.5 28q-82 0 -146.5 -28t-115.5 -88.5 t-78.5 -166t-27.5 -250.5zM639 1595v39l201 318h295l-246 -357h-250z" />
<glyph unicode="&#xd4;" horiz-adv-x="1554" d="M82 737q0 369 186 565.5t510 196.5t509.5 -196.5t185.5 -565.5q0 -370 -185.5 -566t-509.5 -196t-510 196t-186 566zM381 1595l207 357h377l209 -357h-261l-135 248l-135 -248h-262zM410 737q0 -532 368 -532q81 0 145.5 27.5t116 87.5t79.5 165.5t28 251.5 q0 145 -28 251t-79.5 166t-116 88t-145.5 28q-82 0 -146.5 -28t-115.5 -88.5t-78.5 -166t-27.5 -250.5z" />
<glyph unicode="&#xd5;" horiz-adv-x="1554" d="M82 737q0 369 186 565.5t510 196.5t509.5 -196.5t185.5 -565.5q0 -370 -185.5 -566t-509.5 -196t-510 196t-186 566zM317 1747q0 73 21 128t50.5 84t69.5 47t69.5 23t58.5 5q50 0 90.5 -18t66 -44.5t51 -57.5t46 -57.5t51.5 -44.5t67 -18q103 0 103 143q0 41 -2 64h147 q15 -66 15 -119q0 -73 -21 -128t-50.5 -84t-69 -47t-69 -23t-57.5 -5q-62 0 -110.5 24.5t-78.5 59.5t-56 70t-58.5 59.5t-70.5 24.5q-103 0 -103 -141q0 -24 4 -64h-149q-15 66 -15 119zM410 737q0 -532 368 -532q81 0 145.5 27.5t116 87.5t79.5 165.5t28 251.5 q0 145 -28 251t-79.5 166t-116 88t-145.5 28q-82 0 -146.5 -28t-115.5 -88.5t-78.5 -166t-27.5 -250.5z" />
<glyph unicode="&#xd6;" horiz-adv-x="1554" d="M82 737q0 369 186 565.5t510 196.5t509.5 -196.5t185.5 -565.5q0 -370 -185.5 -566t-509.5 -196t-510 196t-186 566zM344 1628v264h299v-264h-299zM410 737q0 -532 368 -532q81 0 145.5 27.5t116 87.5t79.5 165.5t28 251.5q0 145 -28 251t-79.5 166t-116 88t-145.5 28 q-82 0 -146.5 -28t-115.5 -88.5t-78.5 -166t-27.5 -250.5zM911 1628v264h299v-264h-299z" />
<glyph unicode="&#xd7;" horiz-adv-x="1032" d="M94 829l168 168l260 -260l256 254l156 -157l-254 -254l260 -261l-166 -167l-262 260l-260 -260l-156 157l258 258z" />
<glyph unicode="&#xd8;" horiz-adv-x="1556" d="M84 737q0 368 185.5 565t508.5 197q92 0 174 -18q23 46 43 106h265q-15 -42 -82 -194q143 -91 220 -257t77 -399q0 -370 -185.5 -566t-511.5 -196q-92 0 -182 19q-2 -5 -21 -51t-22 -56h-256q3 10 80 195q-142 91 -217.5 256.5t-75.5 398.5zM410 737q0 -243 84 -370 l368 893q-39 8 -82 8q-81 0 -145.5 -27.5t-116.5 -87.5t-80 -165.5t-28 -250.5zM688 215q34 -10 86 -10q373 0 373 532q0 240 -86 373z" />
<glyph unicode="&#xd9;" d="M59 1274v201h564v-201h-127v-782q0 -287 290 -287q43 0 81 7t77.5 26.5t68 50t46.5 82t18 118.5v785h-119v201h506v-201h-67q-51 0 -51 -49v-707q0 -279 -146 -411t-434 -132q-298 0 -443 132t-145 411v707q0 49 -51 49h-68zM397 1952h295l201 -318v-39h-250z" />
<glyph unicode="&#xda;" d="M59 1274v201h564v-201h-127v-782q0 -287 290 -287q43 0 81 7t77.5 26.5t68 50t46.5 82t18 118.5v785h-119v201h506v-201h-67q-51 0 -51 -49v-707q0 -279 -146 -411t-434 -132q-298 0 -443 132t-145 411v707q0 49 -51 49h-68zM608 1595v39l201 318h295l-246 -357h-250z " />
<glyph unicode="&#xdb;" d="M59 1274v201h564v-201h-127v-782q0 -287 290 -287q43 0 81 7t77.5 26.5t68 50t46.5 82t18 118.5v785h-119v201h506v-201h-67q-51 0 -51 -49v-707q0 -279 -146 -411t-434 -132q-298 0 -443 132t-145 411v707q0 49 -51 49h-68zM367 1595l206 357h377l209 -357h-260 l-135 248l-135 -248h-262z" />
<glyph unicode="&#xdc;" d="M59 1274v201h564v-201h-127v-782q0 -287 290 -287q43 0 81 7t77.5 26.5t68 50t46.5 82t18 118.5v785h-119v201h506v-201h-67q-51 0 -51 -49v-707q0 -279 -146 -411t-434 -132q-298 0 -443 132t-145 411v707q0 49 -51 49h-68zM342 1628v264h299v-264h-299zM909 1628v264 h299v-264h-299z" />
<glyph unicode="&#xdd;" horiz-adv-x="1445" d="M-14 1274v201h606v-201h-127l297 -488l282 488h-137v201h551v-201h-78q-42 0 -65 -16t-43 -48l-385 -649v-313q0 -25 13.5 -37t45.5 -12h72v-199h-584v199h74q59 0 59 55v309l-413 651q-40 60 -97 60h-71zM608 1628v39l201 318h295l-246 -357h-250z" />
<glyph unicode="&#xde;" horiz-adv-x="1357" d="M92 0v199h74q57 0 57 55v967q0 53 -53 53h-78v201h582v-201h-76q-52 0 -55 -47v-8h286q118 0 211.5 -38.5t151.5 -104t88.5 -149t30.5 -177.5q0 -212 -133 -347t-361 -135h-274v-20q2 -25 14.5 -37t44.5 -12h72v-199h-582zM543 498h196q70 0 120 20.5t76.5 57t38 78 t11.5 91.5q0 105 -60 172.5t-188 67.5h-194v-487z" />
<glyph unicode="&#xdf;" horiz-adv-x="1312" d="M47 0v184h84q26 0 38.5 8.5t12.5 34.5v795q0 265 127 415t375 150q216 0 349.5 -109t133.5 -290q0 -138 -78 -241.5t-221 -147.5q78 -13 143.5 -41.5t119 -74t84 -115t30.5 -156.5q0 -110 -38 -193t-105 -131.5t-150 -72t-182 -23.5q-71 0 -174 14v199q73 -15 113 -15 q227 0 227 250q0 121 -81.5 174t-240.5 58v209q120 0 181 76.5t61 191.5q0 84 -44 146.5t-130 62.5q-89 0 -142 -69t-53 -214v-1075h-440z" />
<glyph unicode="&#xe0;" horiz-adv-x="1185" d="M57 317q0 148 110 240t322 92h236v135q0 73 -49.5 117.5t-136.5 44.5q-195 0 -234 -153h-170v292q237 60 432 60q224 0 341.5 -106.5t117.5 -305.5v-471q0 -76 82 -76h53v-182q-143 -20 -182 -20q-180 0 -231 125q-72 -56 -169 -90.5t-178 -34.5q-148 0 -246 86.5 t-98 246.5zM211 1616h295l201 -318v-38h-250zM362 336q0 -65 41 -100t99 -35q136 0 223 69v217h-170q-86 0 -139.5 -36t-53.5 -115z" />
<glyph unicode="&#xe1;" horiz-adv-x="1185" d="M57 317q0 148 110 240t322 92h236v135q0 73 -49.5 117.5t-136.5 44.5q-195 0 -234 -153h-170v292q237 60 432 60q224 0 341.5 -106.5t117.5 -305.5v-471q0 -76 82 -76h53v-182q-143 -20 -182 -20q-180 0 -231 125q-72 -56 -169 -90.5t-178 -34.5q-148 0 -246 86.5 t-98 246.5zM362 336q0 -65 41 -100t99 -35q136 0 223 69v217h-170q-86 0 -139.5 -36t-53.5 -115zM444 1260v38l201 318h295l-246 -356h-250z" />
<glyph unicode="&#xe2;" horiz-adv-x="1185" d="M57 317q0 148 110 240t322 92h236v135q0 73 -49.5 117.5t-136.5 44.5q-195 0 -234 -153h-170v292q237 60 432 60q224 0 341.5 -106.5t117.5 -305.5v-471q0 -76 82 -76h53v-182q-143 -20 -182 -20q-180 0 -231 125q-72 -56 -169 -90.5t-178 -34.5q-148 0 -246 86.5 t-98 246.5zM213 1260l207 356h377l209 -356h-261l-135 247l-135 -247h-262zM362 336q0 -65 41 -100t99 -35q136 0 223 69v217h-170q-86 0 -139.5 -36t-53.5 -115z" />
<glyph unicode="&#xe3;" horiz-adv-x="1185" d="M57 317q0 148 110 240t322 92h236v135q0 73 -49.5 117.5t-136.5 44.5q-195 0 -234 -153h-170v292q237 60 432 60q224 0 341.5 -106.5t117.5 -305.5v-471q0 -76 82 -76h53v-182q-143 -20 -182 -20q-180 0 -231 125q-72 -56 -169 -90.5t-178 -34.5q-148 0 -246 86.5 t-98 246.5zM100 1411q0 73 21 128t50.5 84t69.5 47t69.5 23t58.5 5q50 0 90.5 -18t66 -44.5t51 -57.5t46 -57.5t51.5 -44.5t67 -18q103 0 103 144q0 40 -2 63h147q15 -66 15 -119q0 -73 -21 -128t-50.5 -84t-69 -46.5t-69 -22.5t-57.5 -5q-62 0 -110.5 24.5t-79 59 t-56.5 69.5t-58.5 59.5t-70.5 24.5q-102 0 -102 -141q0 -24 4 -64h-149q-15 66 -15 119zM362 336q0 -65 41 -100t99 -35q136 0 223 69v217h-170q-86 0 -139.5 -36t-53.5 -115z" />
<glyph unicode="&#xe4;" horiz-adv-x="1185" d="M57 317q0 148 110 240t322 92h236v135q0 73 -49.5 117.5t-136.5 44.5q-195 0 -234 -153h-170v292q237 60 432 60q224 0 341.5 -106.5t117.5 -305.5v-471q0 -76 82 -76h53v-182q-143 -20 -182 -20q-180 0 -231 125q-72 -56 -169 -90.5t-178 -34.5q-148 0 -246 86.5 t-98 246.5zM117 1311v264h299v-264h-299zM362 336q0 -65 41 -100t99 -35q136 0 223 69v217h-170q-86 0 -139.5 -36t-53.5 -115zM684 1311v264h299v-264h-299z" />
<glyph unicode="&#xe5;" horiz-adv-x="1185" d="M57 317q0 148 110 240t322 92h236v135q0 73 -49.5 117.5t-136.5 44.5q-195 0 -234 -153h-170v292q237 60 432 60q224 0 341.5 -106.5t117.5 -305.5v-471q0 -76 82 -76h53v-182q-143 -20 -182 -20q-180 0 -231 125q-72 -56 -169 -90.5t-178 -34.5q-148 0 -246 86.5 t-98 246.5zM309 1452q0 97 61 155t183 58q121 0 182.5 -58t61.5 -155q0 -96 -61.5 -154.5t-182.5 -58.5q-122 0 -183 58.5t-61 154.5zM362 336q0 -65 41 -100t99 -35q136 0 223 69v217h-170q-86 0 -139.5 -36t-53.5 -115zM473 1452q0 -42 22 -64t58 -22q35 0 56.5 22.5 t21.5 63.5t-21.5 63.5t-56.5 22.5q-36 0 -58 -22t-22 -64z" />
<glyph unicode="&#xe6;" horiz-adv-x="1824" d="M57 326q0 147 110 239t322 92h236v129q0 71 -49 115.5t-133 44.5q-199 0 -238 -153h-170v290q238 62 432 62q226 0 340 -111q139 111 350 111q490 0 490 -537v-114h-719q0 -154 70.5 -225.5t210.5 -71.5q214 0 278 159h139v-280q-94 -45 -223 -73t-225 -28 q-139 0 -255 38t-181 112q-118 -85 -219 -113t-201 -28q-160 0 -262.5 90t-102.5 252zM362 344q0 -70 44.5 -106.5t111.5 -36.5q55 0 112.5 19t94.5 48v228h-170q-86 0 -139.5 -36.5t-53.5 -115.5zM1026 674h438q0 264 -215 264q-111 0 -167 -73.5t-56 -190.5z" />
<glyph unicode="&#xe7;" horiz-adv-x="1120" d="M74 559q0 111 23.5 202.5t66.5 154t97.5 108.5t122 71.5t134 37.5t139.5 12q203 0 377 -68v-295h-178q-28 62 -73.5 97.5t-120.5 35.5q-138 0 -207.5 -92.5t-69.5 -263.5q0 -165 70 -259.5t211 -94.5q74 0 118.5 37.5t75.5 107.5h174v-309q-147 -58 -321 -64l-74 -92 q112 -5 172.5 -53t60.5 -139q0 -228 -372 -228q-34 0 -113 9v147q61 -6 115 -6q151 0 151 100q0 43 -38 64.5t-103 21.5q-6 0 -20 -1t-21 -1l-29 78l82 109q-73 12 -136.5 36.5t-122.5 70t-100 108t-66 154t-25 204.5z" />
<glyph unicode="&#xe8;" horiz-adv-x="1191" d="M74 561q0 284 148 434t403 150q489 0 489 -537v-112h-719q1 -156 70.5 -227.5t210.5 -71.5q211 0 278 159h138v-280q-93 -45 -222 -73t-225 -28q-571 0 -571 586zM231 1616h295l201 -318v-38h-250zM391 674h440q0 264 -215 264q-113 0 -169 -73t-56 -191z" />
<glyph unicode="&#xe9;" horiz-adv-x="1191" d="M74 561q0 284 148 434t403 150q489 0 489 -537v-112h-719q1 -156 70.5 -227.5t210.5 -71.5q211 0 278 159h138v-280q-93 -45 -222 -73t-225 -28q-571 0 -571 586zM391 674h440q0 264 -215 264q-113 0 -169 -73t-56 -191zM463 1260v38l201 318h294l-245 -356h-250z" />
<glyph unicode="&#xea;" horiz-adv-x="1191" d="M74 561q0 284 148 434t403 150q489 0 489 -537v-112h-719q1 -156 70.5 -227.5t210.5 -71.5q211 0 278 159h138v-280q-93 -45 -222 -73t-225 -28q-571 0 -571 586zM190 1260l207 356h377l209 -356h-260l-135 247l-135 -247h-263zM391 674h440q0 264 -215 264 q-113 0 -169 -73t-56 -191z" />
<glyph unicode="&#xeb;" horiz-adv-x="1191" d="M74 561q0 284 148 434t403 150q489 0 489 -537v-112h-719q1 -156 70.5 -227.5t210.5 -71.5q211 0 278 159h138v-280q-93 -45 -222 -73t-225 -28q-571 0 -571 586zM143 1311v264h299v-264h-299zM391 674h440q0 264 -215 264q-113 0 -169 -73t-56 -191zM711 1311v264h299 v-264h-299z" />
<glyph unicode="&#xec;" horiz-adv-x="663" d="M-33 1616h295l201 -318v-38h-250zM43 930v186h436v-840q0 -45 16.5 -68.5t55.5 -23.5h63v-188q-79 -16 -165 -16q-142 0 -206.5 57.5t-64.5 185.5v656q0 31 -12.5 41t-40.5 10h-82z" />
<glyph unicode="&#xed;" horiz-adv-x="663" d="M43 930v186h436v-840q0 -45 16.5 -68.5t55.5 -23.5h63v-188q-79 -16 -165 -16q-142 0 -206.5 57.5t-64.5 185.5v656q0 31 -12.5 41t-40.5 10h-82zM203 1260v38l200 318h295l-245 -356h-250z" />
<glyph unicode="&#xee;" horiz-adv-x="663" d="M-68 1260l207 356h377l209 -356h-260l-135 247l-135 -247h-263zM43 930v186h436v-840q0 -45 16.5 -68.5t55.5 -23.5h63v-188q-79 -16 -165 -16q-142 0 -206.5 57.5t-64.5 185.5v656q0 31 -12.5 41t-40.5 10h-82z" />
<glyph unicode="&#xef;" horiz-adv-x="663" d="M-184 1311v264h299v-264h-299zM43 930v186h436v-840q0 -45 16.5 -68.5t55.5 -23.5h63v-188q-79 -16 -165 -16q-142 0 -206.5 57.5t-64.5 185.5v656q0 31 -12.5 41t-40.5 10h-82zM383 1311v264h299v-264h-299z" />
<glyph unicode="&#xf0;" horiz-adv-x="1284" d="M74 526q0 135 41.5 240t113.5 169t163.5 97t197.5 33q131 0 233 -37q-55 108 -129 201l-172 -99l-96 146l139 78q-128 132 -235 209h321q64 -53 117 -105l184 101l99 -152l-150 -80q139 -152 223 -339t84 -394q0 -308 -151 -463.5t-432 -155.5q-80 0 -154.5 16t-148 56.5 t-127.5 101t-87.5 158t-33.5 219.5zM385 526q0 -156 64.5 -241.5t195.5 -85.5q137 0 202.5 86.5t65.5 238.5q0 322 -262 322q-133 0 -199.5 -84.5t-66.5 -235.5z" />
<glyph unicode="&#xf1;" horiz-adv-x="1390" d="M72 0v184h82q29 0 41 9.5t12 39.5v646q0 31 -12.5 41t-40.5 10h-82v186h426v-106q195 133 397 133q67 0 124 -18.5t103 -56.5t72.5 -104.5t26.5 -154.5v-576q0 -30 12 -39.5t39 -9.5h84v-184h-561v184h123v564q0 159 -160 159q-53 0 -121.5 -26t-126.5 -64v-633h123v-184 h-561zM262 1411q0 73 21 128t50.5 84t69 47t69 23t58.5 5q43 0 79 -13t61 -34.5t47 -47t41.5 -51t39.5 -47t47 -34.5t58 -13q103 0 103 144q0 40 -2 63h147q14 -61 14 -119q0 -73 -21 -128t-50.5 -84t-69 -46.5t-68.5 -22.5t-57 -5q-62 0 -110.5 24.5t-79 59t-56.5 69.5 t-58.5 59.5t-70.5 24.5q-102 0 -102 -141q0 -24 4 -64h-150q-14 61 -14 119z" />
<glyph unicode="&#xf2;" horiz-adv-x="1286" d="M72 559q0 151 43 265.5t121.5 183.5t180.5 103t226 34q123 0 225.5 -34.5t180.5 -104t121.5 -183.5t43.5 -264q0 -120 -28.5 -217.5t-79.5 -165.5t-123 -113.5t-157 -66.5t-183 -21q-125 0 -226.5 33.5t-180 102.5t-121.5 183t-43 265zM309 1616h295l201 -318v-38h-250z M383 559q0 -178 61.5 -272t198.5 -94q140 0 201 93.5t61 272.5t-61 273t-201 94q-137 0 -198.5 -94.5t-61.5 -272.5z" />
<glyph unicode="&#xf3;" horiz-adv-x="1286" d="M72 559q0 151 43 265.5t121.5 183.5t180.5 103t226 34q123 0 225.5 -34.5t180.5 -104t121.5 -183.5t43.5 -264q0 -120 -28.5 -217.5t-79.5 -165.5t-123 -113.5t-157 -66.5t-183 -21q-125 0 -226.5 33.5t-180 102.5t-121.5 183t-43 265zM383 559q0 -178 61.5 -272 t198.5 -94q140 0 201 93.5t61 272.5t-61 273t-201 94q-137 0 -198.5 -94.5t-61.5 -272.5zM537 1260v38l200 318h295l-246 -356h-249z" />
<glyph unicode="&#xf4;" horiz-adv-x="1286" d="M72 559q0 151 43 265.5t121.5 183.5t180.5 103t226 34q123 0 225.5 -34.5t180.5 -104t121.5 -183.5t43.5 -264q0 -120 -28.5 -217.5t-79.5 -165.5t-123 -113.5t-157 -66.5t-183 -21q-125 0 -226.5 33.5t-180 102.5t-121.5 183t-43 265zM283 1260l206 356h377l209 -356 h-260l-135 247l-135 -247h-262zM383 559q0 -178 61.5 -272t198.5 -94q140 0 201 93.5t61 272.5t-61 273t-201 94q-137 0 -198.5 -94.5t-61.5 -272.5z" />
<glyph unicode="&#xf5;" horiz-adv-x="1286" d="M72 559q0 151 43 265.5t121.5 183.5t180.5 103t226 34q123 0 225.5 -34.5t180.5 -104t121.5 -183.5t43.5 -264q0 -120 -28.5 -217.5t-79.5 -165.5t-123 -113.5t-157 -66.5t-183 -21q-125 0 -226.5 33.5t-180 102.5t-121.5 183t-43 265zM248 1395q0 73 21 128t50.5 84 t69 46.5t69 22.5t58.5 5q59 0 104.5 -24.5t74.5 -59.5t55.5 -70.5t61 -60t77.5 -24.5q102 0 102 143q0 41 -2 64h148q14 -61 14 -119q0 -73 -21 -128t-50.5 -84t-68.5 -47t-68.5 -23t-57.5 -5q-62 0 -110.5 24.5t-79 59.5t-56.5 70t-58.5 59.5t-70.5 24.5q-102 0 -102 -142 q0 -23 4 -63h-150q-14 61 -14 119zM383 559q0 -178 61.5 -272t198.5 -94q140 0 201 93.5t61 272.5t-61 273t-201 94q-137 0 -198.5 -94.5t-61.5 -272.5z" />
<glyph unicode="&#xf6;" horiz-adv-x="1286" d="M72 559q0 151 43 265.5t121.5 183.5t180.5 103t226 34q123 0 225.5 -34.5t180.5 -104t121.5 -183.5t43.5 -264q0 -120 -28.5 -217.5t-79.5 -165.5t-123 -113.5t-157 -66.5t-183 -21q-125 0 -226.5 33.5t-180 102.5t-121.5 183t-43 265zM190 1311v264h299v-264h-299z M383 559q0 -178 61.5 -272t198.5 -94q140 0 201 93.5t61 272.5t-61 273t-201 94q-137 0 -198.5 -94.5t-61.5 -272.5zM758 1311v264h299v-264h-299z" />
<glyph unicode="&#xf7;" horiz-adv-x="1177" d="M106 467v221h965v-221h-965zM481 74v194h226v-194h-226zM481 881v194h226v-194h-226z" />
<glyph unicode="&#xf8;" horiz-adv-x="1286" d="M72 557q0 151 43 265.5t121.5 183.5t180.5 103t226 34q57 0 119 -10l57 133h264l-92 -217q223 -152 223 -492q0 -150 -43.5 -263.5t-122 -182t-180 -102.5t-225.5 -34q-44 0 -108 11l-58 -142h-262l92 215q-111 67 -173 191.5t-62 306.5zM383 557q0 -138 47 -211l242 574 h-23q-141 0 -203.5 -92t-62.5 -271zM625 193q148 0 214 92t66 272q0 124 -39 203z" />
<glyph unicode="&#xf9;" horiz-adv-x="1361" d="M41 930v186h428v-743q0 -86 34 -123t109 -37q57 0 129.5 24t135.5 62v600q-3 20 -16 25.5t-36 5.5h-90v186h445v-844q0 -86 80 -86h53v-186q-81 -18 -178 -18q-43 0 -75 4.5t-66 17.5t-58.5 40.5t-38.5 68.5q-79 -56 -189.5 -97t-207.5 -41q-70 0 -128 17.5t-105.5 55.5 t-74 105t-26.5 158v574q0 27 -12 36t-37 9h-76zM367 1616h295l200 -318v-38h-250z" />
<glyph unicode="&#xfa;" horiz-adv-x="1361" d="M41 930v186h428v-743q0 -86 34 -123t109 -37q57 0 129.5 24t135.5 62v600q-3 20 -16 25.5t-36 5.5h-90v186h445v-844q0 -86 80 -86h53v-186q-81 -18 -178 -18q-43 0 -75 4.5t-66 17.5t-58.5 40.5t-38.5 68.5q-79 -56 -189.5 -97t-207.5 -41q-70 0 -128 17.5t-105.5 55.5 t-74 105t-26.5 158v574q0 27 -12 36t-37 9h-76zM559 1260v38l201 318h295l-246 -356h-250z" />
<glyph unicode="&#xfb;" horiz-adv-x="1361" d="M41 930v186h428v-743q0 -86 34 -123t109 -37q57 0 129.5 24t135.5 62v600q-3 20 -16 25.5t-36 5.5h-90v186h445v-844q0 -86 80 -86h53v-186q-81 -18 -178 -18q-43 0 -75 4.5t-66 17.5t-58.5 40.5t-38.5 68.5q-79 -56 -189.5 -97t-207.5 -41q-70 0 -128 17.5t-105.5 55.5 t-74 105t-26.5 158v574q0 27 -12 36t-37 9h-76zM309 1260l207 356h377l209 -356h-260l-135 247l-136 -247h-262z" />
<glyph unicode="&#xfc;" horiz-adv-x="1361" d="M41 930v186h428v-743q0 -86 34 -123t109 -37q57 0 129.5 24t135.5 62v600q-3 20 -16 25.5t-36 5.5h-90v186h445v-844q0 -86 80 -86h53v-186q-81 -18 -178 -18q-43 0 -75 4.5t-66 17.5t-58.5 40.5t-38.5 68.5q-79 -56 -189.5 -97t-207.5 -41q-70 0 -128 17.5t-105.5 55.5 t-74 105t-26.5 158v574q0 27 -12 36t-37 9h-76zM188 1311v264h299v-264h-299zM756 1311v264h299v-264h-299z" />
<glyph unicode="&#xfd;" horiz-adv-x="1267" d="M18 930v186h562v-186h-146l223 -664h13l227 664h-135v186h483v-186h-67q-27 0 -37 -31l-326 -901l-125 -418h-354v88l246 320v10h-127l-328 909q-11 23 -41 23h-68zM532 1260v38l201 318h295l-246 -356h-250z" />
<glyph unicode="&#xfe;" horiz-adv-x="1296" d="M10 -233h82q27 0 40 8t13 35v1515q0 30 -12 39.5t-41 9.5h-82v187h439v-541q191 125 364 125q85 0 155 -29t128 -92t90.5 -174.5t32.5 -263.5q0 -138 -27.5 -244.5t-75 -175t-117 -112t-147.5 -61.5t-174 -18q-89 0 -232 31v-239h138v-187h-574v187zM449 223 q93 -28 176 -28q84 0 139 23t86.5 72.5t44 116.5t12.5 166q0 345 -207 345q-114 0 -251 -95v-600z" />
<glyph unicode="&#xff;" horiz-adv-x="1267" d="M18 930v186h562v-186h-146l223 -664h13l227 664h-135v186h483v-186h-67q-27 0 -37 -31l-326 -901l-125 -418h-354v88l246 320v10h-127l-328 909q-11 23 -41 23h-68zM209 1311v264h299v-264h-299zM776 1311v264h299v-264h-299z" />
<glyph unicode="&#x152;" horiz-adv-x="2185" d="M82 737q0 367 186 564.5t510 197.5q132 0 240 -24h1067v-408h-174l-72 174h-424v-379h459v-203h-459v-430h438l64 179h172v-408h-1096q-118 -25 -215 -25q-324 0 -510 196t-186 566zM410 737q0 -532 383 -532q178 0 303 84v895q-149 82 -312 82q-374 0 -374 -529z" />
<glyph unicode="&#x153;" horiz-adv-x="2021" d="M72 559q0 151 43 265.5t121.5 183.5t180.5 103t226 34q263 0 412 -152q146 152 399 152q490 0 490 -537v-112h-717q0 -156 68.5 -227.5t209.5 -71.5q214 0 279 159h139v-280q-94 -45 -222.5 -73t-225.5 -28q-282 0 -422 146q-149 -146 -410 -146q-125 0 -226.5 33.5 t-180 102.5t-121.5 183t-43 265zM383 559q0 -178 61.5 -272t198.5 -94q140 0 201 93.5t61 272.5q0 182 -62.5 274.5t-199.5 92.5t-198.5 -94.5t-61.5 -272.5zM1223 674h438q0 264 -215 264q-111 0 -167 -73.5t-56 -190.5z" />
<glyph unicode="&#x178;" horiz-adv-x="1445" d="M-14 1274v201h606v-201h-127l297 -488l282 488h-137v201h551v-201h-78q-42 0 -65 -16t-43 -48l-385 -649v-313q0 -25 13.5 -37t45.5 -12h72v-199h-584v199h74q59 0 59 55v309l-413 651q-40 60 -97 60h-71zM301 1628v264h299v-264h-299zM868 1628v264h299v-264h-299z" />
<glyph unicode="&#x2c6;" horiz-adv-x="1392" d="M299 1260l207 356h377l209 -356h-261l-135 247l-135 -247h-262z" />
<glyph unicode="&#x2dc;" horiz-adv-x="1437" d="M287 1395q0 73 21 128t50.5 84t69 46.5t69 22.5t58.5 5q59 0 104.5 -24.5t74.5 -59.5t55.5 -70.5t61 -60t77.5 -24.5q102 0 102 143q0 41 -2 64h148q14 -61 14 -119q0 -73 -21 -128t-50.5 -84t-68.5 -47t-68.5 -23t-57.5 -5q-62 0 -110.5 24.5t-79 59.5t-56.5 70 t-58.5 59.5t-70.5 24.5q-103 0 -103 -142q0 -13 5 -63h-150q-14 61 -14 119z" />
<glyph unicode="&#x2000;" horiz-adv-x="1017" />
<glyph unicode="&#x2001;" horiz-adv-x="2034" />
<glyph unicode="&#x2002;" horiz-adv-x="1017" />
<glyph unicode="&#x2003;" horiz-adv-x="2034" />
<glyph unicode="&#x2004;" horiz-adv-x="678" />
<glyph unicode="&#x2005;" horiz-adv-x="508" />
<glyph unicode="&#x2006;" horiz-adv-x="339" />
<glyph unicode="&#x2007;" horiz-adv-x="339" />
<glyph unicode="&#x2008;" horiz-adv-x="254" />
<glyph unicode="&#x2009;" horiz-adv-x="406" />
<glyph unicode="&#x200a;" horiz-adv-x="113" />
<glyph unicode="&#x2010;" horiz-adv-x="946" d="M123 449v233h700v-233h-700z" />
<glyph unicode="&#x2011;" horiz-adv-x="946" d="M123 449v233h700v-233h-700z" />
<glyph unicode="&#x2012;" horiz-adv-x="946" d="M123 449v233h700v-233h-700z" />
<glyph unicode="&#x2013;" horiz-adv-x="1370" d="M125 461v231h1120v-231h-1120z" />
<glyph unicode="&#x2014;" horiz-adv-x="1810" d="M125 461v231h1561v-231h-1561z" />
<glyph unicode="&#x2018;" horiz-adv-x="561" d="M121 1018v338q0 23 3.5 46t17 53.5t36 53t65 38.5t99.5 16h100v-164h-55q-40 0 -59 -12.5t-19 -43.5v-32h133v-293h-321z" />
<glyph unicode="&#x2019;" horiz-adv-x="544" d="M121 1018v162h57q39 0 58.5 12t19.5 43v33h-135v295h323v-340q0 -23 -4 -46t-17.5 -53t-36.5 -52.5t-65.5 -38t-99.5 -15.5h-100z" />
<glyph unicode="&#x201a;" horiz-adv-x="569" d="M123 0v295h323v-340q0 -24 -4 -47.5t-17.5 -53.5t-36.5 -52.5t-65.5 -38t-99.5 -15.5h-100v164h57q38 0 57 12t19 43v33h-133z" />
<glyph unicode="&#x201c;" horiz-adv-x="1007" d="M121 1018v338q0 23 3.5 46t17 53.5t36 53t65 38.5t99.5 16h98v-164h-55q-39 0 -57.5 -12.5t-18.5 -43.5v-32h131v-293h-319zM567 1018v338q0 23 3.5 46t17 53.5t36 53t65 38.5t99.5 16h101v-164h-55q-40 0 -59 -12.5t-19 -43.5v-32h133v-293h-322z" />
<glyph unicode="&#x201d;" horiz-adv-x="991" d="M121 1018v162h57q38 0 57 12t19 43v33h-133v295h323v-340q0 -23 -4 -46t-17.5 -53t-36.5 -52.5t-65.5 -38t-99.5 -15.5h-100zM567 1018v162h58q77 0 77 55v33h-135v295h324v-340q0 -23 -4 -46t-17.5 -53t-36.5 -52.5t-65.5 -38t-99.5 -15.5h-101z" />
<glyph unicode="&#x201e;" horiz-adv-x="1013" d="M123 0v297h321v-340q0 -24 -4 -47.5t-17.5 -53.5t-36 -52.5t-65 -38t-98.5 -15.5h-100v162h55q39 0 57.5 12.5t18.5 44.5v31h-131zM569 0v297h322v-340q0 -24 -4 -47.5t-17.5 -53.5t-36 -52.5t-65 -38t-98.5 -15.5h-101v162h56q39 0 58 12.5t19 44.5v31h-133z" />
<glyph unicode="&#x2022;" horiz-adv-x="835" d="M168 432v459h500v-459h-500z" />
<glyph unicode="&#x2026;" horiz-adv-x="1689" d="M123 0v295h321v-295h-321zM688 0v295h322v-295h-322zM1245 0v295h322v-295h-322z" />
<glyph unicode="&#x202f;" horiz-adv-x="406" />
<glyph unicode="&#x2039;" horiz-adv-x="733" d="M63 553l388 549l196 -127l-307 -422l307 -420l-196 -125z" />
<glyph unicode="&#x203a;" horiz-adv-x="731" d="M84 135l307 422l-307 420l197 125l387 -545l-387 -549z" />
<glyph unicode="&#x205f;" horiz-adv-x="508" />
<glyph unicode="&#x20ac;" horiz-adv-x="1521" d="M72 453v194h161q-4 58 -4 88q0 28 4 82h-161v195h188q60 246 235 366.5t449 120.5q103 0 230 -17.5t237 -49.5v-345h-184q-31 87 -99 135t-198 48q-115 0 -202.5 -64.5t-131.5 -193.5h440v-195h-477q-4 -54 -4 -84q0 -36 4 -86h477v-194h-436q90 -248 348 -248 q69 0 118 12.5t79.5 39t48 55.5t33.5 73h184v-342q-219 -68 -467 -68q-271 0 -444.5 118t-235.5 360h-192z" />
<glyph unicode="&#x2122;" horiz-adv-x="1558" d="M123 1292v183h500v-183h-68l-18 88h-101v-356q0 -16 21 -16h28v-82h-223v82h27q20 0 20 18v354h-98l-18 -88h-70zM694 926v82h29q18 0 18 18v350q0 19 -16 19h-31v80h232l145 -392l139 392h226v-80h-31q-16 0 -16 -19v-350q0 -18 20 -18h27v-82h-213v82h39v340l-156 -422 h-100l-160 422v-340h39v-82h-191z" />
<glyph unicode="&#x25fc;" horiz-adv-x="1116" d="M0 0v1116h1116v-1116h-1116z" />
</font>
</defs>
</svg>
